<svg transform="scale(1)" version="1.1" id="U8Sw82r7BZ" xmlns="http://www.w3.org/2000/svg" xmlns:xlink="http://www.w3.org/1999/xlink" x="0px" y="0px" viewBox="0 0 500 500" xml:space="preserve" class="pbimage_pbimage__wrapper__image__0LEis false"><title>Artist</title><style type="text/css"> .st0{fill:#59BE4C;} .st1{fill:#FFFFFF;} .st2{fill:#000005;}
 .st2{fill:#000005;}
 .st1{fill:#FFFFFF;}
 .st0{fill:#59BE4C;}</style><g id="character"><g id="pencil"><polygon class="st0" points="408.9,78.7 223.3,268.9 258.6,304.3 441.8,112.9 		"></polygon><path class="st0" d="M407.2,77.1l-5,5.1l-13.5,13.9l-19.9,20.4l-24.4,25l-26.7,27.4l-26.9,27.6l-25.1,25.7l-21.3,21.8l-15.2,15.6
			c-2.4,2.5-4.8,4.9-7.2,7.4l-0.3,0.3c-0.9,0.8-1,2.1-0.3,3.1c0,0,0.1,0.1,0.1,0.1l11.9,12l19,19.1l4.3,4.4c1,0.9,2.5,0.9,3.5,0
			l4.9-5.1l13.4-14l19.7-20.6l24-25.1l26.3-27.5l26.6-27.9l24.8-25.9L421,138l15-15.7c2.4-2.5,4.8-5,7.1-7.4l0.3-0.3
			c0.9-0.8,1-2.1,0.3-3.1c0,0-0.1-0.1-0.1-0.1l-11.1-11.5l-17.7-18.5l-4.1-4.2c-2-2-5.8,1-3.7,3.2l11.1,11.5l17.8,18.4l4.1,4.2
			l0.1-3.2l-4.9,5.1l-13.4,14L402.2,151l-24,25.1l-26.3,27.5l-26.7,27.8l-24.8,26l-20.9,21.9l-15,15.7c-2.4,2.5-4.9,4.9-7.1,7.5
			c-0.1,0.1-0.2,0.2-0.3,0.3h3.5l-12-12l-19-19.1l-4.4-4.4l-0.1,3.2l5-5.1l13.5-13.9l19.9-20.4l24.4-25l26.7-27.4l26.9-27.6
			l25.1-25.7l21.3-21.8L403,88c2.4-2.5,4.8-4.9,7.2-7.4l0.3-0.3C412.8,78,409.3,75,407.2,77.1z"></path><polygon class="st1" points="421.1,67.9 408.9,78.7 441.8,112.9 455.1,101.3 		"></polygon><path class="st0" d="M419.1,66.5l-12.3,10.8c-0.4,0.3,0.3,1.2,0.5,1.4l11.1,11.5l17.8,18.4l4.1,4.2c0.7,0.7,2.6,2.3,3.6,1.4
			l13.2-11.6c0.5-0.5-0.7-1.6-0.9-1.9l-11.4-11.2l-18.3-17.9l-4.2-4.1c-0.5-0.5-2.1-1.6-2.9-1.2s0.3,1.7,0.7,2l11.4,11.2l18.2,17.9
			l4.2,4.1l-0.9-1.8l-13.2,11.6l3.6,1.4l-11.1-11.5l-17.8-18.4l-4.1-4.2l0.5,1.4l12.3-10.8C424.1,68.6,420.3,65.4,419.1,66.5z"></path><polygon class="st1" points="223.3,268.9 202.8,323.5 258.6,304.3 		"></polygon><path class="st0" d="M221.2,267.6l-6.9,18.4l-11.1,29.4l-2.5,6.7c-0.5,1.4,3,3.1,4.1,2.7l18.9-6.5l30.1-10.3l6.9-2.4
			c0.7-0.2-0.2-1.3-0.5-1.5l-11.9-12l-19-19.1l-4.4-4.4c-0.7-0.7-2.1-1.6-3.1-1.5s-0.4,1.1,0.1,1.6l11.9,12l19,19.1l4.3,4.4
			l-0.5-1.5l-18.9,6.5l-30.1,10.3l-6.9,2.4l4.1,2.7l7-18.5l11.1-29.4l2.5-6.7C226,268.7,221.6,266.5,221.2,267.6z"></path><path class="st1" d="M421.1,68c4.5,7.8,9.8,15,15.9,21.6c9.8,10.5,18.1,11.7,18.1,11.7L421.1,68z"></path><path class="st0" d="M419.1,69.4c2.9,5.2,6.3,10.1,10,14.8c5.6,7.1,11.9,14,20.3,17.7c1.4,0.7,2.9,1.1,4.4,1.4
			c1.8,0.2,4.9-1.9,3-3.7l-11.4-11.2l-18.3-17.9l-4.2-4.1c-0.8-0.8-2.6,0.1-3.2,0.7c-0.8,0.8-1.1,1.9-0.2,2.7l11.4,11.2l18.2,17.9
			l4.2,4.1l3-3.7c-4.3-0.6-8.5-3.4-11.8-6c-4-3.3-7.5-7-10.7-11.1c-2.7-3.3-5.1-6.8-7.4-10.3c-1.1-1.7-2.2-3.5-3.2-5.3
			C422.1,64.6,418,67.3,419.1,69.4z"></path><polygon class="st1" points="404.2,83.5 437.6,117.3 441.8,112.9 408.9,78.7 		"></polygon><path class="st0" d="M402,83.4l11.3,11.4l18,18.2l4.1,4.2c0.6,0.6,1.4,1,2.3,1.1c0.6,0.1,1.7,0.3,2.2-0.1l4.2-4.4
			c0.2-0.2,0.2-0.5,0-0.8c0,0,0,0,0,0L433,101.4L415.1,83l-4.1-4.2c-0.8-0.8-3.5-2-4.5-1l-4.7,4.8c-1,1,3.5,2.8,4.5,1.8l4.7-4.8
			l-4.5-1l11.1,11.5l17.8,18.4l4.1,4.2l0-0.8l-4.2,4.4l4.5,0.9L428.5,106l-18-18.2l-4.1-4.2c-0.9-0.8-2-1.2-3.2-1.2
			C402.7,82.3,401.2,82.6,402,83.4z"></path><polygon class="st0" points="208.6,308 216.9,318.7 202.8,323.5 		"></polygon><path class="st0" d="M208.1,309.1l7.2,9.4l1.1,1.4l-0.8-3.2l-12.3,4.2l-1.8,0.6l2.9,4l5.1-13.6l0.7-1.9c0.4-1-0.4-2.3-1-3
			c-0.3-0.3-1.7-1.7-2-0.8l-5.1,13.6l-0.7,1.9c-0.3,0.9,0.3,2,0.8,2.7s1.2,1.6,2,1.3l12.3-4.2l1.8-0.6c0.4-0.1,0.2-1,0.2-1.3
			c-0.2-0.7-0.5-1.4-1-1.9l-7.2-9.4l-1.1-1.4c-0.3-0.4-1.5-1.6-2-0.8S207.6,308.5,208.1,309.1z"></path></g><path class="st1" d="M235.2,275.4c1.8-1.6,3.4-3.4,5.1-5.1c4.3-4.3,8.5-8.5,12.7-12.8l18.6-18.8c7.5-7.6,15-15.1,22.5-22.7
		l24.6-24.8l24.8-25l23.2-23.4l19.8-19.9l14.3-14.4c2.4-2.4,4.8-4.8,7.2-7.2c0.1-0.1,0.3-0.3,0.4-0.4c0.9-0.8-1.8-4.9-2.2-4.5
		c-1.8,1.6-3.4,3.4-5.1,5.1c-4.2,4.3-8.5,8.5-12.7,12.8c-6.2,6.3-12.4,12.5-18.6,18.8c-7.5,7.6-15,15.1-22.5,22.7l-24.6,24.8
		l-24.8,25L274.6,229l-19.7,20c-4.8,4.8-9.5,9.6-14.3,14.4c-2.4,2.4-4.8,4.8-7.2,7.2c-0.1,0.1-0.3,0.3-0.4,0.4
		C232,271.8,234.7,275.8,235.2,275.4L235.2,275.4z" fill="#FFFFFF"></path><path class="st1" d="M250.3,293.6c0.7-0.5,1.3-1.1,1.9-1.7c1.2-1.2,2.4-2.4,3.6-3.7c4.3-4.4,8.5-8.8,12.7-13.2
		c6.2-6.5,12.3-13,18.5-19.4c7.5-7.9,14.9-15.8,22.4-23.7l24.4-25.8l24.7-26.2l23.1-24.5l19.5-20.7c4.8-5.1,9.6-10.1,14.4-15.2
		c2.4-2.5,4.7-5,7.1-7.5c0.1-0.1,0.2-0.2,0.3-0.3c-0.4,0.4-0.4,0.4-0.2,0.2c2.1-1.7-1.5-5.1-3.4-3.6c-1.9,1.8-3.7,3.6-5.4,5.6
		c-4.2,4.5-8.5,8.9-12.7,13.4c-6.2,6.5-12.3,13-18.4,19.6l-22.4,23.7l-24.4,25.9l-24.7,26.2c-7.7,8.1-15.4,16.3-23.1,24.4
		c-6.5,6.9-13.1,13.8-19.6,20.6c-4.8,5-9.6,10.1-14.4,15.1c-1.5,1.6-3.1,3.2-4.6,4.7c-0.5,0.5-1,1-1.6,1.6s0.4-0.4,0,0l-0.3,0.3
		l-0.5,0.4c-0.1,0.2-0.3,0.3-0.5,0.4c-1.1,0.5-0.5,2.2,0.1,2.9C247.9,293.8,249.2,294.1,250.3,293.6L250.3,293.6z" fill="#FFFFFF"></path><path class="st1" d="M309.9,119c0,0-2.8,11-10.1,14.5s-22.6,8-20.5,15.9s13,5.6,18.6,1.3c0,0,8,19.7,21.8,19.2s18-4.5,22.7,2.9
		c0,0,12.2-8.4,11.5-15.1c-0.3-2.5-7.2-28.9-29-29.2C324.9,128.5,312.9,129,309.9,119z" fill="#FFFFFF"></path><path class="st2" d="M307.7,118.1c-0.9,3.4-2.3,6.5-4.3,9.3c-1.5,2.3-3.7,4.1-6.2,5.3c-2.3,1.1-4.7,2-7,3c-2.5,1-5,2.3-7.3,3.7
		c-2,1.1-3.7,2.7-5,4.6c-1.1,1.8-1.2,4-0.3,5.9c1.1,2.6,3.8,4,6.4,4.9c5.5,1.9,11.6,0.2,16.2-3.2l-4.4-1.6c2.1,5.2,5.2,9.9,9.2,13.8
		c5.1,5.4,12.6,8,20,6.9c2.5-0.2,5-0.6,7.5-0.9c1.9-0.3,3.7-0.4,5.6-0.3c0.1,0,0.6,0,0.2,0.1l0,0c-0.2-0.1-0.3-0.1-0.5-0.2
		c-0.6-0.2,0.1,0.1,0.3,0.2c0.8,0.7,1.5,1.5,2,2.4c0.5,0.6,1.2,1,2,1.2c0.5,0.2,1.8,0.9,2.3,0.5c1.6-1.1,3.2-2.4,4.7-3.7
		c2.6-2.3,5.2-5,6.5-8.3c1.3-3.5-0.5-7.5-1.8-10.7c-2.2-5.6-5.5-10.6-9.7-14.8c-5.6-5.3-12.9-8.4-20.6-8.7c-1.8,0-3.5-0.2-5.2-0.7
		c-0.4-0.1-0.7-0.2-1.1-0.4c-0.6-0.4-1.2-0.8-1.8-1.2c-1.6-1.5-2.7-3.3-3.3-5.4c-0.2-0.7-1.9-1.2-2.6-1.4c-0.2-0.1-2-0.6-1.8-0.1
		c2.2,7,9.8,10.4,16.5,11.1c1.9,0.2,3.7,0.1,5.6,0.4c2.8,0.4,5.5,1.5,7.8,3.3c4.9,3.6,8.4,8.9,10.9,14.3c0.9,2,1.7,4.2,2.4,6.3
		c0.5,1.2,0.7,2.5,0.8,3.8c-0.1,3.7-3.1,7-5.6,9.5c-1.8,1.8-3.7,3.4-5.8,4.8l4.2,1.7c-2.3-3.5-6-5.7-10.1-6.1
		c-4.1-0.4-8.4,0.8-12.4,1.2c-2.5,0.2-5.2,0.6-7.7-0.1c-0.5-0.1-1-0.3-1.5-0.6c-0.8-0.5-1.6-1-2.4-1.6c-2.9-2.5-5.4-5.5-7.4-8.9
		c-1.2-1.9-2.2-3.9-3.1-6c-0.3-0.8-3.6-2.2-4.4-1.6c-1.9,1.4-4,2.5-6.3,3.1c-1.1,0.3-2.2,0.6-3.3,0.7c-0.5,0-1.1,0-1.6,0
		c-0.5-0.1-0.9-0.2-1.4-0.2c0.5-0.3,0.9,0.7,0.4,0.1c-0.3-0.4-0.7-0.7-1-1.1c-0.6-1-1-2.1-1.1-3.2c0-1.8,0.7-3.5,1.9-4.8
		c3.2-3.6,8.2-5.5,12.6-7.3c2-0.9,4.1-1.6,6-2.6c2.2-1.1,4.1-2.7,5.5-4.7c2.2-2.9,3.8-6.3,4.7-9.8
		C312.3,119,307.8,117.6,307.7,118.1z" fill="#000005"></path><path class="st2" d="M355.2,143.4c0,0,11.5,0.1,11.7-6.2s-6.3-3.1-6.3-3.1s4.9-13.9-6.6-13.3c0,0,6.8-11.3-2.6-17.9
		s-22.2,2.5-22.2,2.5s-3-13-13.7-8.6s-6,11.6-6,11.6s-6.9,2.8-6,7.3s6.8,4.9,6.8,4.9s5.3,12.2,14.5,7.9l13.5,13.6
		c-1,4.2,0.3,8.7,3.3,11.8C346.9,159,357.8,151.6,355.2,143.4z" fill="#000005"></path><path class="st2" d="M355.7,145.4c3.5,0.1,7.1-0.7,10.2-2.4c2.2-1.3,3.5-3.6,3.4-6.2c0-2.8-2-5.1-4.8-5.4c-1.8-0.1-3.7,0.2-5.3,1.1
		l3.7,2.6c1-2.7,1.3-5.5,1.1-8.3c-0.2-2-1-4-2.5-5.4c-2.1-2-5-2.6-7.9-2.5l2.7,2.9c2.7-4.5,3.5-10.8,0.9-15.5c-2.4-4-6.4-6.7-11-7.5
		c-4-0.5-8.1,0-11.8,1.6c-2.3,0.9-4.6,2-6.6,3.4l3.8,1.5c-1-4.2-3.6-8.4-7.5-10.3c-3.7-1.8-7.7-1-11.2,0.7c-3.2,1.6-6.2,4.2-6.6,8
		c-0.2,1.9,0.2,3.8,1.2,5.4l1-2.6c-3.5,1.4-7.6,4.3-7.3,8.5c0.4,4.4,4.9,7.2,9,7.5l-2-1.3c2.9,6.7,10.2,12.5,17.7,9.1l-2.8-0.8
		l13.5,13.6l-0.5-2c-1.3,5.2,0.4,10.8,4.4,14.3c4.6,3.9,11.6,1.6,15-2.8c2.1-2.6,2.8-6.2,1.9-9.4c-0.4-1.2-1.5-1.9-2.8-1.9
		c-1,0-1.8,0.8-1.8,1.8c0,0.1,0,0.2,0,0.4c1.2,4-1.4,8.1-5.2,9.5c-0.8,0.3-1.6,0.5-2.5,0.4c-0.6-0.1-1.2-0.3-1.7-0.6
		c-1.8-1.6-2.9-3.8-3.1-6.2c-0.1-0.8-0.1-1.6,0-2.4c0-0.3,0.1-0.7,0.1-1s0.1-0.6,0-0.1c0.3-1.3-0.3-2-1.1-2.8l-7-7l-5.8-5.8
		c-0.7-0.8-1.8-1.1-2.8-0.8c-0.9,0.4-1.8,0.7-2.8,0.8c-0.7,0-1.4,0-2-0.2c-0.7-0.2-1.3-0.5-1.8-1c-0.6-0.4-1.2-0.9-1.6-1.4
		c-0.5-0.6-1-1.1-1.4-1.8c0.2,0.3-0.3-0.4-0.4-0.6s-0.3-0.5-0.5-0.8c-0.3-0.5-0.6-1.1-0.9-1.7c-0.4-0.7-1.2-1.2-2-1.3
		c-0.3,0-0.6-0.1-0.9-0.1c-0.3,0-0.6-0.1-0.8-0.2c0.5,0.1-0.4-0.2-0.6-0.2c-0.6-0.2-1.2-0.5-1.6-1c-0.5-0.5-0.7-1.2-0.8-1.9
		c0-1.4,1.3-2.7,2.4-3.5c0.6-0.4,1.2-0.8,1.9-1.1c0.2-0.1,0.8-0.4,0.2-0.1l0.3-0.1c0.9-0.3,1.4-1.2,1.2-2.2c0-0.1-0.1-0.3-0.2-0.4
		c-0.2-0.3-0.3-0.6-0.4-0.9c-0.2-0.4,0.1,0.4,0,0c0-0.2-0.1-0.3-0.2-0.5s-0.1-0.4-0.1-0.6s0-0.2,0-0.3c-0.1-0.5,0,0.2,0,0
		c-0.1-1,0.1-1.9,0.6-2.8c0.7-1.1,1.7-2.1,2.8-2.8c1.5-1,3.1-1.7,4.9-2c0.5-0.1,1-0.1,1.5,0c0.5,0,1,0.1,1.5,0.4l0.4,0.2
		c0.3,0.2-0.3-0.2,0,0s0.5,0.3,0.7,0.5s0.6,0.5,0.3,0.2c0.3,0.2,0.5,0.5,0.7,0.7c0.6,0.7,1.1,1.4,1.5,2.3c0.2,0.5,0.4,0.9,0.6,1.4
		s-0.1-0.2,0.1,0.3c0,0.2,0.1,0.3,0.2,0.5c0.1,0.4,0.2,0.8,0.3,1.2c0.4,1.4,1.9,2.2,3.3,1.7c0.2-0.1,0.3-0.1,0.5-0.2
		c3.9-2.8,8.5-4.4,13.4-4.6c3.4,0,6.6,1.6,8.6,4.4c1.4,2.4,1.8,5.3,1,8.1c-0.4,1.7-1,3.4-1.9,4.9c-0.9,1.6,1.5,3,2.7,2.9
		c0.9-0.1,1.8,0,2.7,0.3c0.2,0.1,0.4,0.2,0.6,0.3c-0.5-0.3,0,0,0.1,0.1s0.4,0.4,0.1,0.1c0.1,0.1,0.2,0.3,0.4,0.4
		c0.3,0.3-0.1-0.3,0.1,0.2l0.3,0.5c0.2,0.4,0-0.1,0.1,0.2c0,0.2,0.1,0.3,0.2,0.5c0.2,0.7,0.3,1.3,0.3,2c0,0.8,0,1.5-0.1,2.3l-0.1,1
		l-0.2,0.8c0.1-0.3,0,0.1,0,0.2l-0.1,0.4c0,0.2-0.1,0.4-0.2,0.6s-0.1,0.4-0.2,0.6c-0.8,2.2,2.1,3.4,3.7,2.6c-0.9,0.4-0.3,0.1,0,0
		s0.6-0.2,0.9-0.3c0.2-0.1,0.4-0.1,0.6-0.1c-0.6,0.1,0.2,0,0.3,0s0.7,0,0.4,0s0.3,0.1,0.4,0.1c-0.3,0-0.3-0.2-0.2-0.1
		c-0.2-0.2-0.2-0.2,0,0c-0.1-0.2-0.1-0.2,0,0c0.1,0.4,0.2,0.8,0.2,1.2c0.1,0.9-0.3,1.8-1,2.4c-1.1,1.1-3.7,1.9-5.2,2.1
		c-1.2,0.2-2.5,0.3-3.7,0.3c-1,0-1.8,0.8-1.8,1.8c0,0.1,0,0.3,0,0.4C353.2,145,354.5,145.6,355.7,145.4z" fill="#000005"></path><path class="st1" d="M323.9,131.4c0,0-0.7-9.1,6-9s14.1,19.2,2.8,21.4" fill="#FFFFFF"></path><path class="st2" d="M325.9,131.8c0-0.5,0-1.1,0-1.6c0-0.7,0,0.2,0-0.4l0.1-0.8c0-0.3,0.1-0.6,0.2-0.8c0-0.1,0.1-0.2,0.1-0.3
		l0.1-0.3c-0.1,0.2-0.1,0.2,0,0c0.3-1,1-1.9,2-2.4c0.6-0.2,1.2-0.4,1.8-0.4c0.8,0-0.3-0.1,0.1,0h0.3l0.4,0.1c-0.5-0.1-0.1,0,0,0
		s0.4,0.2,0.6,0.3c0.5,0.2-0.4-0.3,0,0l0.2,0.2c0.2,0.2,0.5,0.4,0.7,0.6s0.4,0.4,0,0c0.1,0.1,0.2,0.2,0.4,0.4c0.4,0.5,0.8,1,1.2,1.5
		c0.1,0.1,0.3,0.5,0,0l0.3,0.5c0.2,0.3,0.4,0.7,0.5,1.1s0.3,0.6,0.4,0.9l0.1,0.4c0.3,0.6-0.1-0.5,0.1,0.2s0.5,1.4,0.6,2.1
		c0.1,0.3,0.1,0.6,0.2,1c-0.1-0.5,0,0.5,0,0.6c0,0.3,0,0.6,0,1s0,0.4,0,0.6s0,0.7,0,0.2c0,0.4-0.1,0.7-0.2,1.1
		c0,0.1-0.1,0.3-0.1,0.4s-0.2,0.7-0.1,0.3c-0.1,0.3-0.3,0.6-0.4,0.9l-0.2,0.3l-0.2,0.3c0.1-0.2,0.1-0.2,0,0c-0.8,1-2,1.7-3.3,2
		c-2.5,0.5-1.2,5,1.1,4.5c3.5-0.6,6.3-3.3,7-6.8c0.8-3.5,0-7.3-1.4-10.6c-1.3-3-3.3-6.1-6.2-7.7c-3.1-1.7-7-0.7-8.9,2.3
		c-1.3,2.4-1.8,5-1.5,7.7c0,1.2,0.8,2.3,2,2.6c0.9,0.1,1.8-0.5,1.9-1.4C325.9,132,325.9,131.9,325.9,131.8L325.9,131.8z" fill="#000005"></path><path class="st2" d="M308.7,151.1C308.7,151.4,308.7,150.9,308.7,151.1c0,0.1,0,0.4,0,0.6c0,0.7,0,1.3-0.1,2
		c-0.1,0.4-0.1,0.9-0.2,1.3c-0.1,0.2-0.1,0.4-0.2,0.7l-0.1,0.3c0,0.1-0.2,0.4-0.1,0.3s-0.1,0.1-0.1,0.2c-0.1,0.1-0.1,0.2-0.2,0.4
		c-0.1,0.2-0.2,0.5-0.4,0.7c-0.1,0.2-0.3,0.4-0.4,0.6s0.1-0.1,0.1-0.1s-0.1,0.1-0.1,0.2l-0.3,0.3c-0.1,0.1-0.2,0.2-0.3,0.3
		c-0.3,0.3,0.3-0.2,0,0l-0.4,0.3l-0.2,0.1c0,0,0.5-0.3,0.2-0.1s-0.3,0.2-0.5,0.3c-0.4,0.2,0.5-0.2,0,0c-0.2,0-0.3,0.1-0.5,0.2
		c0.5-0.2,0.4-0.1,0.2-0.1l-0.4,0.1c-0.6,0.1-1.2,0.4-1.7,0.8c-0.3,0.2-0.7,0.6-0.8,1c-0.1,1,1.5,0.7,2,0.6c3.3-0.7,6.1-2.7,7.8-5.6
		c0.9-1.7,1.3-3.6,1.3-5.6c0-0.5,0-0.9-0.1-1.4c0-0.3-0.7-0.4-0.9-0.4c-0.6,0-1.1,0.1-1.7,0.3C309.7,149.5,308.5,150.1,308.7,151.1
		L308.7,151.1z" fill="#000005"></path><path class="st2" d="M309.7,133.4c-0.7,0.4-0.9,1.4-0.5,2.1c0,0.1,0.1,0.1,0.1,0.2c1,1.3,2.6,0,2.1-1.4c-0.2-0.7-0.8-1.1-1.5-0.9
		C309.8,133.3,309.8,133.3,309.7,133.4z" fill="#000005"></path><path class="st2" d="M370.2,365.1c0,0,0.4,17.2-1.7,17.6s-59,2.9-60.3-1.7s12.5-12.6,27.2-13.4S370.2,365.1,370.2,365.1z" fill="#000005"></path><path class="st2" d="M367.8,365.2c0.1,3.8,0.1,7.7-0.2,11.5c0,0.6-0.1,1.2-0.1,1.7c0,0.3-0.1,0.6-0.1,0.9c0,0.1,0,0.3,0,0.4
		c-0.1,0.4,0-0.1,0,0.1c-0.1,0.4-0.1,0.8-0.3,1.2c0,0.2-0.1,0.3-0.2,0.5c0,0,0.3-0.5,0.1-0.2s-0.2,0.1,0,0s1.1-0.8,1.5-0.8
		c-0.1,0-0.2,0-0.3,0l-1.2,0.1c-8.3,0.6-16.6,0.7-24.9,0.9c-5.4,0.1-10.7,0.1-16,0c-1.2,0-2.4-0.1-3.5-0.1l-1.6-0.1
		c-0.5,0-0.1,0,0,0h-0.4l-0.9-0.1c-1.9-0.1-3.7-0.3-5.6-0.5c-0.7-0.1-1.4-0.2-2.1-0.4c-0.3-0.1-0.6-0.2-0.9-0.2s0.6,0.2,0.2,0
		l-0.4-0.1c-0.2-0.1-0.3-0.2-0.5-0.2c0,0,0.5,0.4,0.2,0.1s-0.2-0.3,0.2,0.2c-0.3-0.5,0.3,0.6,0.1,0.1c0.2,0.4-0.1,0.1,0-0.1
		s0-0.2,0,0.1c0-0.2,0.1-0.3,0.1-0.5c0.1-0.3-0.2,0.3,0.1-0.2c0.1-0.2,0.3-0.4,0.4-0.6c0.3-0.4,0,0,0.2-0.3s0.5-0.5,0.8-0.8
		c1-1,2.2-1.8,3.5-2.5c3.4-1.9,7-3.3,10.7-4.3c4.2-1,8.5-1.5,12.8-1.6c4.1-0.3,8.3-0.5,12.4-0.9c5.9-0.4,11.7-0.9,17.6-1.4l1-0.1
		c1.3,0,2.4-1.1,2.5-2.4c-0.1-1.2-1.1-2.1-2.3-2c0,0-0.1,0-0.1,0c-4.7,0.4-9.4,0.8-14.1,1.1c-4.3,0.3-8.7,0.6-13,0.9
		c-4.4,0.1-8.8,0.4-13.2,1c-4.7,0.8-9.2,2.2-13.5,4.2c-3.1,1.3-6,3.2-8.4,5.6c-1.5,1.6-3.2,4.4-1.8,6.6c0.9,1,2.1,1.7,3.4,1.9
		c3.7,1,7.6,1.1,11.4,1.3c5.4,0.3,10.8,0.3,16.2,0.3c9.5,0,19-0.3,28.5-0.8c0.9,0,1.8-0.1,2.7-0.2c2.2-0.3,3.2-1.9,3.6-3.9
		c1-4.8,0.9-10,0.8-14.9c0-0.4,0-0.8,0-1.2C372.6,362,367.7,362.5,367.8,365.2z" fill="#000005"></path><path class="st2" d="M448.1,336.6c0,0,15.1,14.6,15.1,16.8s-22.6,29.3-25.5,29.3s-34.3,1.3-36,0.4s-1.3-10.9,9.2-14.2
		c6.3-2,12.7-3.6,19.3-4.6l-5.5-13L448.1,336.6z" fill="#000005"></path><path class="st2" d="M446.3,336.3c2.6,2.5,5.2,5.1,7.7,7.8c1.8,1.9,3.6,3.8,5.2,5.8c0.5,0.6,1,1.3,1.5,2c0.1,0.2,0.2,0.4,0.2,0.7
		c-0.5,1.1-1.2,2.2-2,3.1c-1.3,1.8-2.6,3.5-4,5.3c-3.4,4.3-7,8.5-10.7,12.6c-1.6,1.7-3.2,3.5-4.9,5.1c-1,1-2,1.9-3.2,2.7
		c-0.1,0-0.5,0.2-0.3,0.2s-0.3,0-0.4,0l-1.8,0l-6.2,0.2c-5.6,0.2-11.2,0.3-16.8,0.4c-2.3,0-4.6,0.1-7,0c-0.8,0-1.6,0-2.4-0.1h-0.4
		c-0.4,0,0.3,0,0,0c-0.1,0-0.2,0-0.3,0c0,0-0.1,0-0.1,0c0.2,0.1,3.1,1.4,3,1.6c0-0.1,0,0.1,0-0.1c0-0.1-0.1-0.3-0.1-0.4
		c-0.1-0.4-0.1-0.7-0.1-1.1c0-1,0.1-1.9,0.4-2.8c0.8-2.7,2.5-5.1,4.8-6.7c3.5-2.5,8.2-3.4,12.4-4.5c3.3-0.8,6.6-1.6,10-2.1
		c0.5-0.1,1-0.2,1.5-0.2c0.1,0,0.2-0.2,0.2-0.3c0,0,0,0,0,0l-5.4-13l-0.2,0.3l20.5-12.8l2.9-1.8c0.7-0.5-3.1-3.1-4.2-2.5l-20.6,12.8
		l-2.9,1.8c-0.1,0-0.2,0.2-0.2,0.3c0,0,0,0,0,0l5.4,13l0.1-0.4c-2,0.3-4,0.7-6,1.1c-4.8,0.9-9.5,2.2-14.1,3.8
		c-5,1.9-9.7,6.8-9.2,12.5c0.4,4.2,6.1,4.2,9.2,4.2c5.5,0,11.1-0.1,16.6-0.3c4.6-0.1,9.2-0.3,13.9-0.4c0.9,0.1,1.8-0.2,2.6-0.7
		c1.5-1.1,2.9-2.4,4.1-3.8c3.9-4,7.5-8.2,11.1-12.5c3-3.5,5.8-7.2,8.4-11c0.5-0.8,1-1.5,0.5-2.4c-1.1-1.8-2.4-3.5-3.9-4.9
		c-3.4-3.8-7-7.4-10.6-10.9l-0.7-0.7c-0.9-0.8-2-1.3-3.2-1.5C445.8,335.2,445.6,335.6,446.3,336.3z" fill="#000005"></path><path class="st1" d="M380.3,300c0,0,30.3,48.2,46.3,58.2c0,0,34.8-21.9,34.8-25.9s-49-60-49.5-102.8L379.8,302" fill="#FFFFFF"></path><path class="st2" d="M378.3,301.4c3.6,5.7,7.4,11.4,11.2,16.9c7.2,10.4,14.6,20.8,23.1,30.2c3.7,4.1,7.6,8.4,12.4,11.4
		c0.9,0.6,2.1,0.5,3-0.1c6.8-4.3,13.5-8.7,20.1-13.3c4.3-2.9,8.4-6,12.3-9.4c1.8-1.6,4.4-3.9,3.1-6.6c-1.4-2.6-3.1-5.2-4.9-7.5
		c-3-4.2-5.9-8.3-8.8-12.5c-8-11.4-15.3-23.3-21.7-35.6c-6.4-12.7-12.1-26.5-13.4-40.8c-0.1-1.6-0.2-3.3-0.3-4.9
		c0-2.4-3.8-2.3-4.6-0.5l-10.9,24.5l-17.3,39l-3.9,8.9c-1.3,2.9,3.2,4.1,4.4,1.6l10.9-24.5l17.3-39.1l3.9-8.9l-4.6-0.5
		c0.2,14.2,5.1,28.1,11,40.8c6.2,13,13.4,25.5,21.6,37.3c5.2,7.8,11,15.2,16,23l0.4,0.7l0.2,0.3c0.3,0.4-0.1-0.2,0-0.1
		c0.1,0.3,0.3,0.6,0.5,0.9c0.2,0.4-0.1-0.5,0-0.2s0.1-0.6,0-0.3s0.3-0.4,0.1-0.2s-0.5,0.8-0.2,0.4s-0.1,0.1-0.1,0.2l-0.4,0.4
		c-0.5,0.6-1.1,1.1-1.7,1.7l-0.5,0.5c-0.5,0.4,0.1-0.1-0.2,0.2l-1.4,1.1c-2,1.6-4.1,3.1-6.2,4.7c-7.4,5.3-15,10.3-22.7,15.2
		l-0.5,0.3l3-0.1c-4.1-2.6-7.1-5.8-10.4-9.4c-4.2-4.6-8.1-9.5-11.9-14.4c-6.9-9.1-13.4-18.5-19.7-28c-1.3-2-2.6-4-3.9-6
		C381,296.4,376.8,299,378.3,301.4L378.3,301.4z" fill="#000005"></path><path class="st1" d="M362.4,240.8c0,0-22.1,24.5-28.6,57.3s-5.6,63.3-2.1,67.8s43.5,2.9,45.1-0.7c2.1-4.9,6.6-40.4,16.9-65.7
		c22.2-54.2,21-71.7,21-71.7L362.4,240.8z" fill="#FFFFFF"></path><path class="st2" d="M360.4,239.4c-4.8,5.5-9,11.4-12.7,17.6c-3.8,6.2-7.1,12.7-9.8,19.5c-3.2,8-5.5,16.3-7,24.8
		c-3,16.6-4.7,33.8-3.7,50.6c0.1,2.6,0.4,5.1,0.8,7.6c0.2,1.6,0.6,3.1,1.3,4.5c1.7,3.3,6.1,4.6,9.5,5.1c4.8,0.7,9.6,1,14.4,0.9
		c5.2,0,10.5-0.3,15.7-0.8c2-0.2,4-0.5,6-0.9c1.3-0.2,2.5-0.6,3.5-1.2c0.8-0.5,0.9-1.6,1.1-2.4c0.5-1.9,0.9-3.7,1.2-5.6
		c2.7-13.6,5.3-27.2,9.1-40.6c2.4-8,5.2-15.9,8.4-23.7c3.1-7.9,6.1-15.8,8.8-23.8c3.5-9.9,6.3-20.1,8.4-30.4
		c0.5-2.5,0.9-5.1,1.2-7.7c0.2-1.2,0.2-2.4,0.2-3.6c0-0.1,0-0.3,0-0.4c0-0.6-1.4-1.4-1.8-1.7s-1.6-1.2-2.2-1.1l-17.7,4.4l-28.2,7
		l-6.4,1.6c-0.6,0.2,1,1.4,1.1,1.5c0.5,0.4,2,1.6,2.7,1.4l17.7-4.4l28.2-7l6.5-1.6l-4-2.7c0,0.5,0,1.1,0,1.6
		c-0.1,1.8-0.3,3.6-0.6,5.4c-1.4,8.2-3.3,16.4-5.8,24.3c-2,6.8-4.3,13.4-6.8,20c-3,8.3-6.6,16.4-9.6,24.7
		c-5.2,14-8.4,28.8-11.3,43.4c-1,4.9-1.8,9.7-2.9,14.6c-0.1,1.1-0.5,2.3-1,3.3c-0.7,0.7-1.6,1.1-2.5,1.2c-4.1,1-8.2,1.5-12.4,1.7
		c-5.2,0.4-10.5,0.5-15.7,0.3c-3.9-0.1-8.1-0.2-11.9-1.4c-0.4-0.1,0,0-0.2-0.1s-0.2-0.1-0.4-0.1s0.2,0.1,0.2,0.1l0.3,0.1
		c0.5,0.3,0.9,0.7,1.4,1.1c0.2,0.2,0,0-0.1-0.1c-0.1-0.3-0.3-0.6-0.4-0.9c-0.6-1.7-1-3.5-1.2-5.3c-0.7-6.2-1-12.5-0.8-18.7
		c0.2-8.7,0.9-17.4,2.1-26c1-9.1,2.8-18.2,5.4-27c2.3-7.3,5.2-14.4,8.8-21.2c4.5-8.7,9.9-16.8,16.1-24.3c0.3-0.4,0.6-0.7,1-1.1
		S361,238.7,360.4,239.4z" fill="#000005"></path><path class="st2" d="M349,258.2c0,0-21.6-77.7-4-95.2c27.1-26.7,72.8,59.3,71.7,64.9S361.3,261.9,349,258.2z" fill="#000005"></path><path class="st2" d="M351.5,258.1c-1.5-5.2-2.7-10.5-3.9-15.8c-2.6-11.4-4.6-22.8-5.9-34.4c-1.2-11.1-2.2-23,0.5-34
		c0.9-3.9,2.4-7.9,5.3-10.8c1.4-1.4,3.1-2.6,4.9-3.5c0.8-0.4,1.6-0.7,2.4-0.9l0.6-0.1c-0.4,0.1,0.1,0,0.3,0c0.6-0.1-0.2,0,0.2,0
		c0.1,0,0.2,0,0.3,0c0.5,0.1-0.5-0.1,0,0c0.3,0.1,0.7,0,0.1,0h0.6c0.5,0-0.4,0,0,0h0.3c0.1,0,0.8,0.1,0.4,0c0.9,0.1,1.8,0.3,2.6,0.6
		c1.9,0.6,3.8,1.4,5.6,2.4c4.2,2.4,8,5.3,11.4,8.7c8,7.7,14.8,16.7,20.9,26c5.2,7.7,9.7,15.9,13.6,24.3c1.1,2.1,2,4.4,2.5,6.7
		c0.3,1.8-1.6,3-2.9,4.1c-3.6,2.7-7.4,5-11.3,7.1c-5.2,3-10.6,5.8-16.1,8.4s-11.3,5.1-17.1,7.3c-4.4,1.7-9,3-13.7,3.8
		c0.8-0.1-1.2,0.1-0.7,0.1s-0.3,0-0.4,0c-0.4,0,0.6,0,0,0c-0.3,0-0.5,0,0,0c-0.2,0-0.3,0-0.5,0c0.6,0.1,0,0-0.1,0
		c-0.4-0.1,0.2,0.1-0.2,0c-1.1-0.3-2.3-0.3-3.4-0.1c-0.3,0-1.9,0.5-0.9,0.8c4.4,1.3,9.4,0.3,13.8-0.7c5.6-1.4,11-3.3,16.3-5.6
		c11.4-4.6,22.4-10.2,32.8-16.6c2.9-1.8,6.4-3.8,8.6-6.5c1.2-1.4,0.6-2.8,0-4.4c-2.7-7.6-6.9-14.8-11-21.6
		c-5.8-9.9-12.5-19.2-20.1-27.8c-6.3-7-14-14.5-23.4-17.1c-8.6-2.4-18.9-0.4-23.7,7.7c-2.4,3.9-3.4,8.6-4,13.1
		c-0.7,5.8-0.8,11.6-0.5,17.4c0.8,12.6,2.5,25.2,5.1,37.5c1.5,7.8,3.3,15.5,5.4,23.2l0.3,1.2C346.8,259.3,351.6,258.6,351.5,258.1z" fill="#000005"></path><path class="st1" d="M390.2,216.1c0,0-1,28-22,35.3c-21,7.3-54.2-13-54.2-13s-29.2-1.9-30.8-8.2s3-7.3,3-7.3s-11.1-3.9-9.3-9.4
		s6.1-3.9,6.1-3.9s-4.4-4.8,0.6-8.4s19.6,3.9,19.6,3.9s-6.8-9.6-1.4-11.2s16.8,16.4,21.8,19.6s27,17.6,33.7,0.4L390.2,216.1z" fill="#FFFFFF"></path><path class="st2" d="M387.7,215.9c0,0.6-0.1,1.2-0.1,1.8c0,0.3-0.1,0.6-0.1,0.9l-0.1,0.5c0,0.4,0-0.3,0,0.2
		c-0.1,0.9-0.3,1.8-0.5,2.6c-0.8,4.7-2.4,9.2-4.5,13.5c-2.6,5.2-6.6,9.5-11.6,12.4c-5.5,3-11.7,3.5-17.8,2.9
		c-11.8-1.2-23.1-5.9-33.3-11.4c-1.3-0.7-2.5-1.4-3.8-2.1c-0.7-0.5-1.4-0.8-2.2-0.9c-3.5-0.4-7-0.6-10.4-1.1
		c-1.3-0.2-2.6-0.4-3.9-0.6l-2-0.4l-0.9-0.2c-0.1,0-0.6-0.1-0.3-0.1l-0.4-0.1c-2.4-0.5-4.8-1.1-7.1-2l-0.7-0.3c0.5,0.2,0,0-0.2-0.1
		c-0.4-0.2-0.8-0.4-1.2-0.7c-0.2-0.1-0.5-0.4-0.1-0.1l-0.4-0.4c-0.1-0.1-0.4-0.4-0.2-0.1s-0.1-0.2-0.2-0.2s0.1,0.4,0,0
		c0-0.3-0.1-0.5-0.2-0.8c-0.1-0.7-0.1-1.5,0-2.2c0.1-0.3,0.2-0.6,0.3-0.9c0.1-0.3,0-0.1,0.3-0.4c0.1-0.1,0.4-0.5,0.3-0.4
		c0.2-0.1,0.3-0.2,0.4-0.3c0.2-0.2,0.5-0.3,0.1-0.1l0.4-0.2l0.4-0.1c0.8-0.3,1.3-1.1,1.1-1.9c-0.2-0.9-0.9-1.6-1.8-1.8
		c-0.3-0.1-0.6-0.2-0.9-0.3s-0.8-0.4-0.1,0l-0.5-0.2c-0.4-0.2-0.8-0.4-1.1-0.5c-0.9-0.5-1.8-1-2.6-1.6c0.3,0.2-0.4-0.3-0.5-0.4
		s-0.4-0.3-0.5-0.5c-0.3-0.2-0.6-0.5-0.8-0.8c-0.5-0.5-0.7-1.2-0.6-1.9c0.2-1,0.7-2,1.4-2.7c0.3-0.3,0.6-0.5,1-0.6
		c-0.5,0.2,0,0,0.2,0h0.4c-0.3,0-0.4,0-0.2,0c0.4,0,1.1,0.3,0.3,0c0.1,0,0.2,0,0.3,0.1c2.2,0.8,3.9-1.4,2.3-3.1
		c0.3,0.3,0.4,0.5,0.1,0.1s-0.4-0.6-0.6-0.9s0,0,0,0c-0.1-0.1-0.1-0.2-0.1-0.3c-0.1-0.2-0.2-0.4-0.2-0.7c-0.1-0.4-0.2-0.9-0.1-1.4
		c0.2-1.1,1-2.1,2-2.6c-0.4,0.2,0.9-0.3,0.4-0.2c0.5-0.1,0.9-0.2,1.4-0.2c0.3,0,0,0,0,0h0.4h0.7c0.6,0,1.1,0.1,1.7,0.2
		c1,0.2,2.1,0.4,3.1,0.7c2,0.6,4,1.4,6,2.2c0.4,0.2-0.3-0.1,0.2,0.1l0.7,0.3l1,0.4l0.9,0.4c0.9,0.6,2.1,0.6,3,0
		c0.8-0.6,0.9-1.6,0.4-2.4c-1.1-1.5-2-3.1-2.6-4.8c-0.1-0.3-0.2-0.6-0.3-0.9c0-0.1-0.2-0.8-0.1-0.6c-0.1-0.3-0.1-0.6-0.1-0.9
		c0-0.2,0-0.3,0-0.5c0,0.3,0,0,0-0.1c0-0.1,0.1-0.3,0.2-0.4c-0.1,0.1-0.2,0.3,0,0c0,0,0.2-0.3,0,0c0.1-0.1,0.2-0.2,0.3-0.2
		c-0.3,0.1,0,0,0.1,0c0.4-0.3-0.1,0,0,0c0.4,0-0.5-0.2,0.2,0c-0.1,0-0.5-0.2,0.1,0l0.4,0.1c-0.1,0-0.5-0.3-0.1-0.1
		c0.2,0.1,0.4,0.2,0.6,0.4s0.9,0.6,0.5,0.3c1.2,0.9,2.3,1.8,3.3,2.9c2.3,2.3,4.4,4.9,6.6,7.4c1.9,2.4,3.9,4.6,6.1,6.7
		c1.6,1.3,3.2,2.4,5,3.4c5.2,3.1,10.7,5.8,16.6,6.8c3.4,0.7,6.9,0.4,10.1-0.9c3.5-1.7,6.1-4.7,7.4-8.3l-2.3,1.3l28.9,2l4.1,0.3
		c1.1,0.1,2.4-0.5,2.4-1.8c-0.2-1.3-1.3-2.2-2.5-2.2l-28.9-2l-4.1-0.3c-1-0.1-1.9,0.4-2.3,1.3c-1.1,2.9-3.1,5.3-5.7,6.3
		c-1.1,0.4-2.4,0.7-3.6,0.7c-0.3,0-1.3,0-1.9-0.1c-0.4,0-0.7-0.1-1.1-0.1l-0.6-0.1c-0.4-0.1,0,0-0.2,0c-5.6-1.2-10.2-3.7-15.1-6.7
		c-0.7-0.4-1.4-0.9-2.1-1.3c0.6,0.4,0,0-0.1-0.1s-0.4-0.4-0.6-0.5c-0.5-0.4-1-0.9-1.4-1.4c-2.2-2.3-4.1-4.6-6.2-7.1
		c-2.1-2.6-4.5-5.1-7-7.4c-2-1.7-4.7-3.7-7.6-3.3c-1.8,0.2-3.3,1.3-4,2.9c-0.4,1.5-0.4,3.2,0.2,4.7c0.7,2.3,1.8,4.5,3.2,6.5l3.3-2.4
		c-3.4-1.8-7-3.2-10.8-4.2c-2.7-0.9-5.5-1.2-8.3-0.9c-2.9,0.4-5.9,2.4-6.5,5.5c-0.3,2.6,0.5,5.2,2.4,7l2.3-3.1
		c-4.1-1.5-8.3,1.4-9.2,5.5c-1,4.6,3.8,8,7.3,9.9c1.3,0.7,2.6,1.2,3.9,1.7l-0.7-3.7c-3.2,0.8-4.8,4.3-4.5,7.3c0,1.8,0.8,3.5,2.1,4.7
		c1.2,1,2.6,1.8,4.1,2.4c3.4,1.3,7,2.3,10.7,2.9c3.6,0.7,7.2,1.2,10.9,1.6c2,0.2,4,0.4,6,0.5l-1.3-0.4c3.8,2.3,7.8,4.4,11.9,6.2
		c8.3,3.8,17,6.9,26.1,8.2s18.5,0.4,26.1-5c6.5-4.6,10.8-11.8,13.2-19.4c1.5-4.4,2.4-9.1,2.6-13.8
		C392.7,213.9,387.8,213.1,387.7,215.9z" fill="#000005"></path><path class="st2" d="M295.4,214.3l-9-4.7l-1.3-0.7c-0.4-0.1-0.8,0-1.2,0.1c-0.6,0.1-1.3,0.3-1.9,0.5c-0.2,0.1-2,0.7-1.5,1l9,4.7
		l1.3,0.7c0.4,0.1,0.8,0,1.2-0.1c0.6-0.1,1.3-0.3,1.9-0.5C294.1,215.2,295.9,214.5,295.4,214.3L295.4,214.3z" fill="#000005"></path><path class="st2" d="M287.7,223.7l6.5,1.5l0.9,0.2c0,0,0.7,0.2,0.8,0.1s-0.6-0.4-0.6-0.4c-1.1-0.5-2.2-0.9-3.3-1.1l-6.5-1.5
		l-0.9-0.2c0,0-0.7-0.2-0.8-0.1s0.7,0.4,0.6,0.4C285.4,223.1,286.5,223.4,287.7,223.7z" fill="#000005"></path></g><g id="sun"><g id="sun-2"><path class="st0" d="M163.8,101.3c0,0,13.9,4.4,13.3,20.8s-17,26.7-31.9,16.7s-8.9-26.9-5.9-30.2S150.1,97.2,163.8,101.3z"></path><path class="st0" d="M162.8,103c0.4,0.1,0.9,0.3,1.3,0.5c0.4,0.2,0.8,0.4,1.2,0.6s-0.5-0.3,0,0l0.3,0.2c0.3,0.2,0.7,0.4,1,0.7
			c2.8,1.8,5,4.4,6.4,7.3c4,8.7,1.3,20.3-6.8,25.7c-8.3,5.6-19.5,2-24.9-6.1c-2.3-3.5-3.4-7.7-3.1-11.9c0.2-3.1,1-6.2,2.5-9
			c0.2-0.3,0.3-0.6,0.5-0.8s0.6-0.8,0.1-0.2c0.5-0.5,1-1.1,1.5-1.6c1.3-1.3,2.8-2.5,4.4-3.5c5.1-3,10.7-3.3,16.3-1.6
			c1.1,0.3,2.6-0.2,2.8-1.4c0.3-1.3-1-2.1-2.1-2.4c-6-1.9-12.4-1.5-18.1,1c-3.5,1.7-6.6,4.1-9.1,7.2c-2,2.4-3,5.8-3.5,8.9
			c-0.9,4.7-0.3,9.6,1.7,14c5.1,10.9,18.8,16.9,30.1,12.7c10.8-4,16.2-16.4,13.7-27.3c-1.7-7.3-6.9-13.4-13.9-16.1l-0.4-0.1
			c-1.1-0.3-2.6-0.4-3.3,0.7c-0.4,1,0.1,2.2,1.1,2.6C162.7,103,162.8,103,162.8,103z"></path></g><path class="st0" d="M153.6,152.6v6.1c0,0.5,0.5,0.9,0.9,1c0.6,0.2,1.2,0.1,1.7-0.1c0.6-0.2,1.2-0.6,1.6-1.1l0.3-0.5
		c0.2-0.3,0.2-0.7,0.2-1v-6c0-0.5-0.5-0.9-0.9-1c-0.6-0.2-1.2-0.1-1.7,0.1c-0.6,0.2-1.2,0.6-1.6,1.1l-0.3,0.5
		c-0.1,0.3-0.2,0.7-0.2,1V152.6z"></path><path class="st0" d="M133.3,146c1.3-1.3,2.4-2.7,3.4-4.2c0.1-0.1,0.1-0.1,0-0.1c-0.1-0.1-0.2-0.1-0.3,0c-0.5,0.1-1,0.2-1.5,0.3
		c-0.6,0.2-1.2,0.4-1.8,0.6l-0.5,0.2c-0.2,0.1-0.4,0.2-0.6,0.3c-0.9,1.5-2.1,3-3.4,4.2c-0.2,0.2,0.3,0.2,0.3,0.2
		c0.5-0.1,1-0.2,1.5-0.3c0.6-0.2,1.2-0.4,1.8-0.6C132.6,146.5,133,146.3,133.3,146L133.3,146z"></path><path class="st0" d="M174.2,142c1.3,1.8,3,3.2,4.9,4.4c0.5,0.3,1.1,0.5,1.6,0.7c0.5,0.2,1.1,0.4,1.7,0.5c0.1,0,0.7,0.2,0.8,0v-0.1
		c-0.2-0.2-0.3-0.3-0.5-0.4l-0.3-0.2l-0.1-0.1l0.2,0.1l-0.1-0.1l-0.6-0.4c-0.4-0.3-0.8-0.6-1.2-1l0.2,0.2c-0.7-0.6-1.3-1.3-1.9-2.1
		c-0.3-0.3-0.6-0.5-1-0.6c-0.6-0.3-1.2-0.5-1.8-0.7c-0.5-0.2-1-0.3-1.5-0.3C174.4,141.8,174,141.8,174.2,142L174.2,142z"></path><path class="st0" d="M182.3,122.5h7.6c0.6,0,1.3-0.1,1.9-0.3c0.5-0.1,1-0.4,1.4-0.7c0.7-0.8-0.5-1.1-1.1-1.1h-7.6
		c-0.6,0-1.3,0.1-1.9,0.3c-0.5,0.1-1,0.4-1.4,0.7C180.4,122.2,181.7,122.5,182.3,122.5z"></path><path class="st0" d="M178.5,102.7c0.8-1.4,1.8-2.7,2.9-3.9c0.1-0.2,0.2-0.4,0.2-0.7c0-0.3,0-0.5-0.1-0.8c-0.2-0.6-0.5-1.2-0.9-1.7
		c-0.4-0.4-0.9-0.7-1.4-0.9h-0.4c-0.3,0-0.5,0.2-0.7,0.4c-1.1,1.2-2.1,2.5-2.9,3.9c-0.2,0.5-0.3,1-0.1,1.5c0.2,0.6,0.5,1.2,0.9,1.7
		c0.4,0.4,0.8,0.7,1.4,0.9C177.8,103.2,178.2,103,178.5,102.7L178.5,102.7z"></path><path class="st0" d="M159.4,93.8v-6.5c0-0.4-0.6-0.8-0.9-1c-0.5-0.4-1.2-0.6-1.8-0.7c-0.5-0.1-1.1-0.1-1.6,0l-0.3,0.2
		c-0.2,0.1-0.2,0.3-0.2,0.6v6.5c0,0.4,0.6,0.8,0.9,1c0.5,0.4,1.2,0.6,1.8,0.7c0.5,0.1,1.1,0.1,1.6,0l0.3-0.2
		C159.4,94.2,159.5,94,159.4,93.8L159.4,93.8z"></path><path class="st0" d="M137.7,101.6c-1.9-1.6-3.9-3-5.9-4.5l-0.7-0.5l-0.3-0.2c-0.3-0.2,0.6,0.5,0.2,0.2c-0.5-0.4-1-0.8-1.6-1
		c-0.5-0.2-1-0.3-1.6-0.2c-0.3,0.1-0.7,0.3-0.7,0.7c0.1,0.5,0.3,0.9,0.7,1.2c1.9,1.6,3.9,3,5.9,4.5l0.7,0.5l0.3,0.2
		c0.3,0.2-0.6-0.5-0.2-0.2c0.5,0.4,1,0.8,1.6,1c0.5,0.2,1.1,0.3,1.6,0.2c0.3-0.1,0.7-0.3,0.7-0.7
		C138.3,102.4,138.1,101.9,137.7,101.6L137.7,101.6z"></path><path class="st0" d="M125.2,120.3h-4.3c-0.4,0-0.7,0.1-0.8,0.5c0,0.5,0.1,0.9,0.4,1.3c0.3,0.6,0.8,1,1.3,1.4
		c0.4,0.3,0.9,0.6,1.4,0.7h4.3c0.4,0,0.7-0.1,0.8-0.5c0-0.5-0.1-0.9-0.3-1.3c-0.3-0.6-0.8-1-1.3-1.4
		C126.2,120.6,125.7,120.3,125.2,120.3z"></path></g><g id="plant"><path class="st0" d="M195.9,323.1c-4.1,0.1-8.2,0.2-12.3,0.5c-8.8,0.5-17.6,1.2-26.3,2.3c-8.4,1.1-17.1,2.4-25,5.6
		c-4.3,1.8-10.6,5.1-8.6,10.9c1.3,3.8,4.7,6.6,7.8,9c5.3,3.9,11,7.3,17,10c11.8,5.5,24.2,9.2,36.2,14.2c2.5,1,4.8,2.1,7.2,3.3
		c0.5,0.3,1,0.6,1.6,0.9l0.9,0.5l0.5,0.3c0.5,0.3,0.9,0.6,1.4,0.9c0.2,0.1,0.4,0.3,0.6,0.5s0.9,0.7,0.4,0.3c0.4,0.3,0.8,0.6,1.2,1
		c0.2,0.1,0.6,0.6,0.2,0.2c0.2,0.2,0.4,0.4,0.6,0.6s0.3,0.3,0.5,0.5c-0.4-0.4,0.1,0.1,0.2,0.2s0.3,0.4,0.4,0.5l0.2,0.3
		c0.3,0.5-0.2-0.4,0.1,0.1c1,1.4,1.6,3.1,1.8,4.8c0.6,4.9-1.7,9.6-4.2,13.7c-3.6,5.7-8.4,10.6-14,14.4
		c-10.6,7.1-23.5,10.2-36.1,11.4c-8.2,0.8-16.4,0.7-24.5-0.2l-1.2-0.2c-1.1-0.2-0.4,1.1-0.1,1.5c0.7,1,1.7,1.7,2.8,2
		c5.9,0.8,11.9,1.1,17.9,0.9c12.2-0.2,24.6-2.1,35.8-7c6.1-2.6,11.7-6.3,16.5-10.9c4.6-4.3,8.1-9.7,10.2-15.6
		c1.5-4,1.2-8.4-0.7-12.2c-2.2-4.2-6.1-7.4-10.1-9.9c-10.1-6.4-22-9.7-33.1-13.9c-6.2-2.3-12.3-4.9-18.3-7.8c-2.8-1.4-5.6-3-8.2-4.8
		c-0.6-0.4-1.2-0.9-1.9-1.3c-0.3-0.2-0.7-0.5-1-0.8l-0.4-0.3c-0.4-0.3,0.2,0.2,0,0s-0.8-0.6-1.1-0.9l-0.5-0.5
		c-0.4-0.4,0.3,0.3-0.2-0.2c-0.3-0.3-0.6-0.6-0.9-0.9s0.3,0.4,0.1,0.1l-0.2-0.2l-0.4-0.5c0-0.1-0.4-0.5-0.2-0.3s-0.1-0.2-0.1-0.2
		s-0.2-0.3-0.2-0.4s-0.3-0.6-0.2-0.4s-0.2-0.5-0.2-0.6c0-0.2-0.1-0.4-0.2-0.6c-0.1-0.5-0.1-1,0-1.5c0.3-2.1,2.3-3.8,4.2-5
		c2.9-1.7,6.1-3,9.4-3.9c4.2-1.2,8.5-2.1,12.8-2.8c9.1-1.5,18.3-2.4,27.5-3c5.7-0.4,11.4-0.6,17.1-0.8h0.8c1,0-0.4-1.8-0.6-2
		c-0.7-0.8-1.7-1.4-2.8-1.5L195.9,323.1z"></path><path class="st0" d="M112.3,430.4c0.4-1.5,0.6-3,0.4-4.5c-0.1-0.7-0.2-1.4-0.2-2c0-0.3-0.1-0.7-0.1-1c0,0.3,0-0.4,0-0.4
		c0-0.9,0.3-1.7,0.8-2.5c-0.2,0.3,0.2-0.2,0.3-0.3s0.6-0.4,0.2-0.2c0.2-0.1,0.4-0.2,0.6-0.3c-0.5,0.1,0.6,0,0,0c0.1,0,0.2,0,0.3,0.1
		c-0.3-0.1-0.3-0.1-0.1,0s0.2,0.1-0.1-0.1l0.3,0.2c-0.3-0.2-0.3-0.3-0.1-0.1s0.2,0.2-0.1-0.1c0.2,0.1,0.3,0.5,0.4,0.6s0.1,0.2,0,0
		c0.1,0.1,0.1,0.2,0.2,0.3c0.1,0.2,0.2,0.5,0.3,0.7l0.1,0.4c-0.1-0.3-0.1-0.3,0,0l0.2,0.9c0.6,2.7,0.9,5.5,0.8,8.2
		c0,1.3,0.8,2.4,2,2.9c0.9,0.3,2.3,0.2,2.3-1.1c0.1-2.7-0.1-5.4-0.6-8c-0.3-2.3-1.1-4.5-2.4-6.4c-1.5-1.9-4-3.4-6.5-2.5
		c-1.9,0.8-2.9,2.9-3.2,4.9c-0.1,1.3-0.1,2.6,0.2,3.9c0.3,1.2,0.3,2.5,0,3.8c-0.3,1.2,0.2,2.4,1.3,3
		C110.3,431.3,111.9,431.7,112.3,430.4L112.3,430.4z"></path><path class="st0" d="M72.3,429.4c-4.6-0.2-11.1-6.2-6.1-10.3c2-1.6,4.7-1.3,6.8,0.1c2.6,1.7,4.2,4.4,5.7,7l3.4-1.8
		c-2-1.5-2.5-4.5-1.9-6.9c0.7-2.8,2.6-5.2,5.2-6.6c0.8-0.5,1.7-0.5,2.5-0.1c0.9,1,1.6,2.1,2.1,3.4c1.3,3,2,6.3,2,9.6l4.2-0.4
		c-0.1-0.1,0-0.7,0.2-1c0.3-0.5,0.5-0.6,0.9-0.3c1.3,1.1,1.5,3.4,1.7,5c0.3,2.2,5.1,2.8,4.7,0c-0.1-2-0.8-4-1.9-5.7
		c-1.3-1.8-3.3-3-5.5-3.2c-1.9-0.3-3.7,0.7-4.6,2.3c-0.8,1.6-0.4,3.5,0.9,4.7c0.9,0.9,4.2,1.8,4.2-0.4c0-7.3-4.1-21.4-14.1-17.6
		c-3.7,1.6-6.5,4.8-7.3,8.8c-0.9,4.1,0.7,8.4,4.1,10.9c1.4,1,4.7,0.5,3.4-1.8c-2.3-3.9-5-7.7-9.2-9.7c-3.8-1.9-8.7-2-11.9,1
		s-2.6,7.5,0,10.7c2.8,3.5,7,5.6,11.5,5.9c0.9,0.1,1.7-0.5,1.8-1.3c0-0.2,0-0.4,0-0.6c-0.5-1.2-1.6-1.9-2.9-1.9L72.3,429.4z"></path><path class="st1" d="M77.5,339.5c0,0,0.9-24.8,9.4-26.2s14.7,1.7,13.3,9.8S78.9,349.5,77.5,339.5z"></path><path class="st0" d="M80,339.7c0.1-3.6,0.5-7.3,1.2-10.9c0.5-2.9,1.2-5.7,2.2-8.5c0.8-2.2,2-4.6,4-6c1.1-0.6,2.4-1,3.6-1
		c0.5-0.1,1-0.1,1.4-0.1c0.2,0,0.2,0,0,0c0.6,0.1,1.2,0.4,1.8,0.7c3.1,1.7,4,5,3.6,8.3c-0.5,2.4-1.5,4.7-3,6.6
		c-1.8,2.5-3.9,4.9-6.2,7c-2.3,2.2-4.9,4.1-7.7,5.5c-0.6,0.3-1.1,0.5-1.7,0.6c-0.1,0-0.6,0.1-0.5,0.1c0.9-0.3,1.9-0.2,2.7,0.3
		c0.1,0.1,0,0-0.1,0C80.6,341.7,80.1,340.7,80,339.7c-0.1-0.9-5-0.6-5-0.6c0.5,3.3,3.7,3.6,6.5,3.6s5.2-1.1,7.5-2.7
		c2.9-2,5.5-4.3,7.8-7c2.2-2.3,4-4.9,5.3-7.8c1.2-2.9,1.2-6.8-0.9-9.3c-2.7-3.3-8.2-3.6-12.1-3.6c-3.2,0-6.2,0.3-8.3,2.9
		c-1.8,2.5-3,5.4-3.6,8.4c-1.3,5.1-2,10.2-2.2,15.5C75,339.8,80,340.1,80,339.7z"></path><path class="st1" d="M80.4,347.9c0,0,20.3,4.6,27.4-3.5s1.7-19.4-12.6-12.4S77.9,345.2,80.4,347.9z"></path><path class="st0" d="M79.8,349.4c4.1,0.9,8.3,1.4,12.5,1.4c6.3,0,14.1-0.9,18.3-6.2c3.5-4.5,4.4-11.6-1.3-14.8
		c-3.3-1.9-7.4-1.6-11-0.7c-4.7,1.4-9.1,3.7-13,6.5c-3.3,2.2-11.3,8.4-7.1,13.1c1,0.8,2.3,1,3.4,0.5c0.9-0.3,1.7-1.2,0.9-2.1
		c-0.1-0.1-0.3-0.5-0.1-0.1c-0.1-0.1-0.1-0.2-0.2-0.4c0-0.1-0.1-0.2-0.1-0.4s0,0,0,0.1s0-0.2,0-0.3c-0.1-0.6,0.1-1.3,0.4-1.9
		c1.1-2.1,2.7-3.9,4.6-5.2c3.2-2.5,6.8-4.6,10.5-6.2c1.5-0.7,3.2-1.2,4.9-1.4c1-0.1,2,0,3,0.4c0.8,0.3,1.5,0.9,1.9,1.6
		c0.5,0.8,0.9,1.6,1,2.5c0.2,2.4-0.4,4.8-1.9,6.8c-1.5,2-3.6,3.5-6.1,4.1c-1.3,0.4-2.5,0.6-3.8,0.7c-1.3,0.1-2.5,0.2-3.8,0.2
		c-3.9,0-7.9-0.4-11.7-1.3c-0.9-0.2-2.7,0-3.1,1.1S79,349.2,79.8,349.4z"></path><path class="st1" d="M77.5,353.6c0,0,21.5,16.2,27.6,13.3s7.2-8.6,2-14.2s-24.1-6.6-27.6-3.6S77.5,353.6,77.5,353.6z"></path><path class="st0" d="M75.9,354.3c3.3,2.5,6.8,4.9,10.4,7.2c2.9,1.8,5.9,3.5,8.9,5c2.6,1.4,5.4,2.2,8.3,2.5c3.5,0,6.7-1.8,8.3-4.9
		c2.3-4.1-0.1-8.9-3.1-11.9c-2.3-2.4-5.7-3.7-8.8-4.5c-3.7-1-7.4-1.6-11.2-1.7c-3.2-0.1-6.9-0.2-9.9,1.2
		C76.2,348.2,73.3,351.7,75.9,354.3c0.9,0.9,2.2,1.2,3.4,0.9c1.1-0.5,0.6-1.5,0-2.2c0,0,0.5,0.5,0.3,0.3c0.7,0.7,0.1,0.3,0.1,0.2
		s0-0.1,0,0.1c0-0.5,0.1-0.9,0.3-1.3c0.5-0.7,1.1-1.4,1.8-1.9c0.3-0.2-0.1,0,0.1-0.1c0.2-0.1,0.5-0.2,0.7-0.3
		c0.9-0.3,1.9-0.5,2.8-0.6c1.3-0.2,2.7-0.2,4-0.2c3.1,0,6.2,0.4,9.2,1.1c1.3,0.3,2.6,0.7,3.9,1.2c0.9,0.3,1.7,0.8,2.4,1.4
		c2.5,2.2,4.1,5.9,2.4,9c-0.9,1.6-2.3,2.8-3.9,3.5c-0.2,0.1-0.3,0.1-0.5,0.2c0.5-0.1-0.1,0-0.2,0s-0.7,0-0.2,0l-0.7,0h-0.3
		c-0.3,0,0.4,0.1,0.1,0l-0.7-0.2c-0.3-0.1-0.5-0.1-0.8-0.2l-0.4-0.1c-0.3-0.1,0.4,0.1-0.1,0c-1.2-0.4-2.4-1-3.6-1.5
		c-1.4-0.7-2-1-3.4-1.8c-1.2-0.7-2.4-1.4-3.6-2.2c-2.4-1.5-4.8-3.1-7.1-4.7c-0.7-0.5-1.4-1-2.2-1.5c-0.3-0.2-1.4-1-0.4-0.3
		c-0.9-0.7-2.2-1.4-3.3-0.9S75.1,353.7,75.9,354.3z"></path><path class="st1" d="M74.1,357.4c0,0,6.2,30.4,15.7,29.3s12.7-8.4,7.2-16.9s-17.4-15.6-20.1-15S74.1,357.4,74.1,357.4z"></path><path class="st0" d="M71.7,357.6c0.8,3.7,1.7,7.3,2.9,10.9c1.8,5.8,4,12.2,8.1,16.8c1.8,2.2,4.4,3.4,7.1,3.5
		c4.1-0.1,8.5-2,10.8-5.4s1.9-7.7,0.3-11.3c-1.9-4.3-5.3-8-8.9-11.1c-3.4-3.2-7.4-5.7-11.7-7.5c-1.6-0.7-3.5-0.8-5.2-0.3
		c-1.7,0.6-3.4,2-3.6,3.9c-0.3,2.6,4.7,3.4,4.9,0.7c0-0.1,0-0.1,0-0.2c0.1-0.4-0.2,0.4,0,0.1c0-0.1,0.1-0.2,0.2-0.3
		c0.1-0.1,0.2-0.2,0.3-0.2c0.2-0.1,0.3-0.2,0.5-0.2c0.5-0.2,0.3,0,0,0c-0.1,0-0.6,0,0,0c0.1,0,0.2,0,0.3,0c0.3,0-0.6-0.2-0.1,0
		s1.2,0.4,1.8,0.7c3.1,1.5,5.9,3.4,8.5,5.6c3.2,2.5,5.9,5.7,7.9,9.3c1.4,2.7,2,6.1,0.4,8.7c-0.8,1.1-1.9,2-3.1,2.6
		c-0.8,0.3-1.6,0.6-2.5,0.8c-0.4,0.1-0.8,0.1-1.2,0.2c-0.3,0-0.9-0.1-0.2,0c-0.2,0-0.4-0.1-0.6-0.1c0.5,0,0.3,0.1-0.1,0
		s-0.6-0.3-0.1,0c-0.2-0.1-0.5-0.3-0.7-0.4l-0.5-0.4c0.4,0.4-0.1-0.1-0.2-0.2c-0.4-0.4-0.8-0.8-1.1-1.3c-0.3-0.4-0.6-0.7-0.8-1.1
		c-0.4-0.6-0.7-1.1-1-1.7c-0.7-1.2-1.3-2.5-1.8-3.7c-1.1-2.5-2-5-2.8-7.6c-1.1-3.6-2.1-7.2-2.9-10.9
		C76.1,354.8,71.1,354.9,71.7,357.6z"></path><path class="st1" d="M70.1,358.6c0,0-12.3,22.2-8.5,27s11.9,4.2,14.8,0.6s1.2-28.1-2.3-28.8S70.1,358.6,70.1,358.6z"></path><path class="st0" d="M68.4,356.7c-2.2,4.1-4.2,8.3-6,12.6c-1.3,3-2.3,6-3,9.2c-0.5,2.7-0.3,5.1,1.5,7.3c2.9,3.6,7.2,5.8,11.9,5
		c2.9-0.5,5.4-1.9,6.2-4.8c0.6-2.9,0.9-5.8,0.7-8.7c0-3.5-0.3-6.9-0.8-10.4c-0.5-3-1-6.3-2.9-8.8c-1.2-1.5-2.5-2.7-4.5-2.8
		c-1.2,0-2.7,0.2-3.1,1.5c-0.4,1.1,3.2,4.1,3.5,3.3c-0.1,0.3,0.2-0.3,0.3-0.4c0.5-0.4,1.1-0.6,1.8-0.6c0.6,0.1,1.1,0.1,1.7,0.1
		c-0.1,0-0.4-0.2-0.6-0.4c-0.4-0.3-0.7-0.6-1-1c-0.5-0.7-0.2-0.3-0.2-0.2c-0.4-0.4,0,0,0.1,0.2c-0.1-0.3,0.1,0.2,0.1,0.3
		c0.1,0.2,0.2,0.5,0.2,0.7c0.2,0.6,0.3,1.1,0.4,1.7c0.3,1.3,0.5,2.6,0.7,4c0.8,5.5,1.2,11.6,0.2,17.2c-0.4,2.2-2,4-4.1,4.7
		c-1.6,0.6-3.3,0.8-5,0.5c-0.9-0.1-1.7-0.3-2.5-0.6c-0.5-0.2-1-0.5-1.5-0.8c0,0,0.2,0.3,0.3,0.4s0.1-0.1,0.1,0.1
		c0-0.2-0.1-0.4-0.2-0.5c-0.1-0.4-0.1-0.8-0.1-1.3c0-1.1,0.1-2.3,0.3-3.4c0.7-2.8,1.6-5.6,2.8-8.2c1.8-4.2,3.7-8.3,5.9-12.3
		C72.4,359.3,68.6,356.3,68.4,356.7z"></path><path class="st1" d="M70.1,358c0,0-7.5,23.6-16.2,22.7s-13.7-5.6-10.2-13.1S71.5,347.9,70.1,358z"></path><path class="st0" d="M68.3,356.3c-1.2,3.6-2.6,7.1-4.3,10.5c-1.3,2.7-2.8,5.2-4.6,7.6c-1.4,1.8-3.2,3.8-5.5,4.4
		c-1.5,0.2-3,0.1-4.5-0.4c-0.9-0.2-1.8-0.5-2.7-0.8c-0.4-0.2-0.7-0.3-1.1-0.5c-0.2-0.1-0.5-0.4-0.4-0.2c0.7,1.2-0.2-0.5-0.2-0.7
		c-0.3-0.7-0.4-1.5-0.4-2.2c0-1.8,0.4-3.5,1.3-5c1.3-2.1,3-3.8,5-5.2c2.4-1.9,5-3.5,7.8-4.8c2.7-1.4,5.6-2.4,8.6-2.9
		c0.6-0.1,1.1-0.1,1.7,0c0.4,0,0.8,0.2,1.2,0.3c-0.1-0.1-0.2-0.1-0.3-0.2c-0.7-0.4-1.3-1-1.7-1.7c-0.1-0.1-0.1-0.1,0,0
		s0.1,0.3,0.2,0.5c0.1,0.5,0.1,1.1,0,1.6c-0.1,0.7,1.6,1.9,2,2.3c0.2,0.2,1.6,1.3,1.7,0.7c0.2-1.1-0.1-2.2-0.8-3.1
		c-1-1.5-2.5-2.7-4.1-3.5c-2.2-0.9-4.9-0.1-7.1,0.6c-3.2,1.1-6.3,2.5-9.1,4.4c-2.7,1.6-5.2,3.6-7.3,5.9c-2,2.3-3.3,5.8-2.4,8.9
		c1.2,4,5.5,7.2,9.2,8.6c3,1.1,6.4,1.9,9.2,0.1c2.6-1.6,4.4-4.4,6-6.9c2.7-4.6,4.9-9.6,6.6-14.7c0.2-0.6-1.1-1.7-1.5-2
		C70.3,357.5,68.4,355.9,68.3,356.3z"></path><path class="st1" d="M69.6,349c0,0-18.3-9.9-27.4-4s-6.9,18.2,8.8,15.3S71.3,352.3,69.6,349z"></path><path class="st0" d="M71.7,347.8c-4.1-2.2-8.4-3.9-12.9-5c-3.3-0.9-6.7-1.2-10.1-0.7c-3.8,0.8-7.4,2.6-10.2,5.3
		c-3.6,3.3-5.6,9.3-1,12.7c2.6,1.9,6.2,2.2,9.3,1.9c4.6-0.5,9.1-1.6,13.5-3.3c3.6-1.4,7.5-3.4,10.2-6.1
		C71.6,351.2,72.6,349.4,71.7,347.8c-0.1-0.3-4.5,2.1-4.3,2.5c0.5,1.2,0.4,2.6-0.5,3.5c-0.5,0.7-1.1,1.2-1.8,1.7
		c0,0,0.1-0.1,0.2-0.1c0.2-0.2,0-0.1,0,0c0.1-0.2,0.3-0.2,0,0c-0.7,0.3-1.4,0.6-2.1,0.9c-3.9,1.5-7.9,2.4-12,2.9
		c-2.9,0.3-6.1,0.2-8.7-1.3c-4.1-2.4-4.2-7.4-1.6-11c0.3-0.4,0.7-0.9,1.1-1.3c0.2-0.2,0.4-0.4,0.7-0.6s1.1-0.8,0-0.1s0.5,0,0.9-0.1
		c0.7-0.2,1.4-0.3,2.1-0.4c3.1-0.2,6.2,0.1,9.2,1c4.4,1.1,8.5,2.7,12.5,4.9c0.4,0.2,1.9-0.8,2.3-1C69.8,349.1,71.7,347.8,71.7,347.8
		z"></path><path class="st1" d="M73.9,344.3c0,0-16.2-21.4-22.9-20.3s-9.2,6.4-5.8,13.1s21.4,12.9,25.6,11S73.9,344.3,73.9,344.3z"></path><path class="st0" d="M76.2,344.9c-2.5-3.3-5.2-6.5-8-9.6c-4-4.4-8.6-9.3-14.4-11.1c-1.5-0.6-3.2-0.9-4.9-0.9c-1.8,0.2-3.5,0.9-5,2
		c-3.2,2.4-3.2,6.5-1.7,10c1.3,3,3.7,5,6.4,6.8c3.4,2.1,7.1,3.7,10.9,4.9c3.7,1.2,7.7,2.4,11.6,2.3
		C72.9,349.2,77.6,347.4,76.2,344.9c-0.3-0.6-2.2-0.9-2.9-1c-0.2-0.1-2-0.4-1.8-0.1c-0.1-0.2,0.1,0.3,0.1,0.4c0,0.5-0.2,0.9-0.5,1.3
		c-0.9,1.1-2.2,1.9-3.6,2.2c-1,0.1-2,0.1-3-0.1c-0.4,0-1-0.2-1.2-0.2c-0.6-0.1-1-0.2-1.5-0.4c-3-0.9-5.8-2.2-8.4-3.8
		c-2.3-1.4-4.7-3.2-6-5.7c-1.5-3-2.1-6.8,0.1-9.6c1.1-1.3,2.5-2.2,4.1-2.6c0.6-0.2,1.3-0.3,1.9-0.4c0.3-0.1,0.3,0.1-0.1,0
		s-0.7-0.2-1.1-0.3c-0.1,0-0.5-0.2-0.3-0.1c0.4,0.2,0.7,0.4,1.1,0.6c0.5,0.3,1,0.6,1.5,1c1.1,0.8,2.1,1.6,3.1,2.5
		c2.1,1.9,4.2,4,6.1,6.1c2.7,3,5.4,6.1,7.8,9.3c0.5,0.7,2.1,0.9,2.9,1.1C74.7,344.9,76.5,345.2,76.2,344.9z"></path><path class="st1" d="M78.2,341.6c0,0,2.3-31-7.2-32.5s-14.5,4.7-11.5,14.3s12.5,19.8,15.3,19.9S78.2,341.6,78.2,341.6z"></path><path class="st0" d="M80,343.2c0.3-3.7,0.3-7.5,0.2-11.2c-0.2-5.8-0.5-12.4-3.2-17.7c-1.3-2.6-3.6-5.5-6.3-6.6c-3.3-1.2-7-0.8-10,1
		c-3,1.9-4.1,5.5-3.8,8.9c0.3,4.7,2.5,9.2,5,13.1c2.8,4.6,6.3,8.8,10.4,12.3c1.1,0.9,2.5,2.1,3.9,2.3s3.2-0.4,3.8-1.7
		c0.3-0.7-1-1.8-1.3-2.2c-0.1-0.1-2-1.8-2.1-1.4c-0.5,1-1.6,1.7-2.7,1.7c-0.9,0-1.7-0.3-2.3-0.9c-1-0.9-2-1.8-2.9-2.9
		c-1.3-1.5-2.5-3.1-3.6-4.8c-3.4-5.4-7.9-15.2-1.6-20.2c2.7-1.9,6.2-2.5,9.4-1.7c0.3,0.1,0.6,0.2,0.9,0.4c0,0-0.2-0.2,0,0
		c-0.2-0.1-0.3-0.3-0.5-0.4c0.4,0.4-0.4-0.4,0,0c-0.5-0.5,0.2,0.3-0.1-0.1c0.1,0.2,0.3,0.5,0.3,0.6c0.3,0.5,0.5,1,0.7,1.5
		c2,4.9,2.3,10.6,2.4,15.9c0.1,3.7,0.1,7.5-0.2,11.2c-0.1,0.8,1.3,2,1.9,2.5C78.5,342.6,79.9,343.8,80,343.2z"></path><path class="st1" d="M84.2,345.4c-0.2,4.1-2.4,7.9-5.9,10c-3.6,2.3-8.5,4.9-9.9,3.2c-2.3-2.7-1.5-13.5,7.6-17.6
		C82,338.4,84.3,341,84.2,345.4z"></path><path class="st0" d="M82.7,343.4c-0.1,2.2-0.8,4.4-2,6.2c-1.3,1.8-3,3.3-5,4.3c-1.8,1.2-3.8,2.2-5.9,2.9c-0.4,0.1-0.8,0.2-1.2,0.2
		c-0.2,0-0.7-0.2-0.9-0.1c0,0,1.4,1.7,0.6,0.7c-0.1-0.1,0.7,1.2,0.4,0.7c0.4,0.7,0.2,0.3,0.1,0.2c0.3,0.5,0,0.1,0-0.1
		c-0.1-0.4,0.1,0.3,0-0.1c0-0.1,0-0.3-0.1-0.4c-0.1-0.3-0.1-0.5-0.1-0.8c-0.1-0.6-0.1-1.2,0-1.9c0.1-1.4,0.5-2.8,1-4.1
		c1.3-3.3,3.7-6.1,6.9-7.7c1.8-0.9,4.1-1.9,6.1-1.2c0.1,0,0.7,0.4,0.8,0.4c-0.1,0-0.4-0.4-0.4-0.5c-0.2-0.3-0.4-0.6-0.6-1
		c0.1,0.2,0.1,0.2,0,0c0.1,0.5,0-0.2,0.1,0.2c0.1,0.2,0.1,0.5,0.1,0.7C82.8,342.6,82.8,343,82.7,343.4c0.2,1,0.6,2,1.3,2.8
		c0.1,0.1,1.5,1.7,1.6,1.1c0.1-2.4-0.7-4.8-2.2-6.8c-1.2-1.7-2.8-2.9-4.9-2.7c-4.4,0.3-8.6,3.6-10.6,7.3c-1.7,2.9-2.4,6.4-1.8,9.7
		c0.4,2.1,1.5,4.1,3.1,5.6c1.6,1.5,4.1,0.4,5.8-0.4c2.8-1.1,5.3-2.8,7.4-5c2-2.2,3.1-5,3.3-7.9c-0.1-1.1-0.6-2-1.3-2.8
		C84.2,344.4,82.8,342.8,82.7,343.4z"></path><path class="st0" d="M72.7,351c0.7,0,2.6,0,3-0.8s-1.4-0.9-1.8-0.9c-0.8,0-2.6,0-3,0.8S72.3,351,72.7,351z"></path><path class="st1" d="M77.2,345.9c0.2,0,0.3-0.1,0.4-0.3c0-0.1,0-0.1,0-0.2c-0.2,0-0.4,0.1-0.5,0.2"></path><path class="st0" d="M75.9,347.1c0.4,0.2,0.9,0.3,1.3,0.3c0.2,0,0.5,0,0.7,0c0.1,0,0.2,0,0.3-0.1c0.1,0,0.2,0,0.3-0.1l0,0l0.5-0.2
		l0,0c0.2-0.1,0.3-0.2,0.4-0.3l0,0c0.1-0.1,0.2-0.2,0.3-0.4v-0.1c0.1-0.1,0.1-0.3,0.1-0.4c0,0,0,0,0-0.1v-0.1c0-0.1,0-0.3-0.1-0.4
		l0,0c0,0,0,0,0,0c0,0-0.2-0.3-0.2-0.4l0,0c-0.2-0.3-0.5-0.4-0.9-0.6c-0.3-0.1-0.6-0.2-0.9-0.2h-0.3h-0.7h-0.1
		c-0.2,0-0.5,0.1-0.7,0.1H76c-0.2,0.1-0.4,0.1-0.6,0.2l-0.1,0c-0.1,0.1-0.3,0.2-0.4,0.3l0,0c-0.2,0.1-0.3,0.3-0.3,0.5
		c-0.1,0.2-0.1,0.4,0,0.6c0.1,0.2,0.2,0.4,0.4,0.5c0.2,0.2,0.4,0.3,0.7,0.4l0.6,0.2c0.4,0.1,0.9,0.1,1.3,0.1l0.6-0.1
		c0.3-0.1,0.7-0.2,0.9-0.5l0.1-0.1l-0.4,0.3l0.2-0.1l-0.5,0.2h0.2l-0.6,0.1h0.1l-2.7-1l0,0l-0.2-0.4c0,0,0,0.1,0,0.1l-0.1-0.4
		c0,0,0,0.1,0,0.1l0.1-0.4c0,0.1,0,0.1-0.1,0.1l0.3-0.3c0,0-0.1,0.1-0.1,0.1l0.4-0.3h-0.1l0.5-0.2l0,0l0.6-0.1l0,0h0.7l0,0l0.7,0.1
		l0,0l0.6,0.2l0,0c-0.3-0.1-0.6-0.2-0.9-0.2c-0.3-0.1-0.7-0.1-1,0c-0.3,0-0.6,0.1-0.9,0.2c-0.2,0.1-0.5,0.2-0.7,0.4l-0.3,0.3
		c-0.1,0.2-0.1,0.5,0,0.8l0.2,0.4c0.2,0.2,0.5,0.4,0.9,0.6L75.9,347.1z"></path><path class="st0" d="M77.5,351c0.5,0,2.5,0.1,2.5-0.8s-2-1-2.5-1S75,349.2,75,350S77,351,77.5,351z"></path><path class="st0" d="M91.2,366.8c11.1,10.6,17.5,25.1,18,40.4c0.1,4.3-0.2,8.7-1.1,12.9c-0.2,1.2,1.4,2.1,2.4,2.2
		c1.2,0.1,2.4-0.7,2.6-1.9c3-15.9-0.4-32.3-9.4-45.8c-2.5-3.8-5.5-7.3-8.9-10.5C93,362.3,88.9,364.7,91.2,366.8L91.2,366.8z"></path><path class="st0" d="M113.7,396.6c0.3-3.8,2-7.4,4.9-9.9c0.6-0.6,1.5-0.9,2.3-1c0.3,0,0.7,0.1,1,0.2l0.1,0.1h0.1
		c0.4,0.4,0.2-0.1-0.7-1.2c-1.1-1.9-0.6-1.5-0.8-0.8c-0.3,0.8-0.9,1.5-1.6,2c-0.9,0.7-1.8,1.4-2.6,2.1l-6,4.9
		c-0.2,0.2-0.1,0.7,0,0.9c0.2,0.6,0.4,1.1,0.7,1.6c0.1,0.2,1.3,2.2,1.8,1.9l6.3-5.1c1-0.8,2-1.5,2.8-2.4c0.8-0.7,1.3-1.7,1.4-2.8
		c-0.1-0.8-0.3-1.6-0.7-2.3c-0.5-1.1-1.2-2-2-2.8c-0.7-0.6-1.6-0.9-2.5-0.8c-2.1,0.3-3.7,2.5-4.8,4.2c-1.3,2.1-2.2,4.5-2.4,7
		c0.1,1.1,0.5,2.1,1.1,2.9c0.3,0.4,0.6,0.8,1,1.2c0.1,0.1,0.5,0.3,0.5,0L113.7,396.6z"></path></g></svg>