<svg xmlns="http://www.w3.org/2000/svg" xmlns:xlink="http://www.w3.org/1999/xlink" width="410" zoomAndPan="magnify" viewBox="0 0 307.5 111.749996" height="149" preserveAspectRatio="xMidYMid meet" version="1.0"><defs><g/><clipPath id="893efe89dd"><path d="M 0.09375 5 L 288 5 L 288 111.5 L 0.09375 111.5 Z M 0.09375 5 " clip-rule="nonzero"/></clipPath><clipPath id="77a1075027"><path d="M 0.09375 0.375 L 105.472656 0.375 L 105.472656 105.753906 L 0.09375 105.753906 Z M 0.09375 0.375 " clip-rule="nonzero"/></clipPath><clipPath id="adfbb89393"><path d="M 0.09375 0.375 L 105.472656 0.375 L 105.472656 105.753906 L 0.09375 105.753906 Z M 0.09375 0.375 " clip-rule="nonzero"/></clipPath><clipPath id="17dc9fff26"><rect x="0" width="106" y="0" height="106"/></clipPath><clipPath id="cfab7d9c83"><rect x="0" width="127" y="0" height="67"/></clipPath><clipPath id="c8d2c42a0c"><path d="M 39 5.566406 L 99 5.566406 L 99 61 L 39 61 Z M 39 5.566406 " clip-rule="nonzero"/></clipPath><clipPath id="7b3d619c45"><path d="M 0.09375 62 L 104.820312 62 L 104.820312 105.488281 L 0.09375 105.488281 Z M 0.09375 62 " clip-rule="nonzero"/></clipPath><clipPath id="82516a636a"><rect x="0" width="288" y="0" height="107"/></clipPath></defs><g clip-path="url(#893efe89dd)"><g transform="matrix(1, 0, 0, 1, 0.000000000000000014, 5)"><g clip-path="url(#82516a636a)"><g clip-path="url(#77a1075027)"><g transform="matrix(1, 0, 0, 1, 0.000000000000000014, -0.000000000000002665)"><g clip-path="url(#17dc9fff26)"><g clip-path="url(#adfbb89393)"><path fill="#00bf63" d="M 0.09375 0.375 L 105.472656 0.375 L 105.472656 105.753906 L 0.09375 105.753906 Z M 0.09375 0.375 " fill-opacity="1" fill-rule="nonzero"/></g></g></g></g><g transform="matrix(1, 0, 0, 1, 124, 7)"><g clip-path="url(#cfab7d9c83)"><g fill="#000000" fill-opacity="1"><g transform="translate(0.231599, 49.518804)"><g><path d="M 4.609375 -35.859375 L 12.296875 -35.859375 L 12.296875 -7.171875 L 28.953125 -7.171875 L 28.953125 0 L 4.609375 0 Z M 4.609375 -35.859375 "/></g></g></g><g fill="#00bf63" fill-opacity="1"><g transform="translate(30.211403, 49.518804)"><g><path d="M 3.328125 -25.109375 L 10.25 -25.109375 L 10.25 0 L 3.328125 0 Z M 6.765625 -28.4375 C 5.671875 -28.4375 4.738281 -28.816406 3.96875 -29.578125 C 3.195312 -30.347656 2.8125 -31.25 2.8125 -32.28125 C 2.8125 -33.300781 3.203125 -34.195312 3.984375 -34.96875 C 4.773438 -35.738281 5.71875 -36.125 6.8125 -36.125 C 7.90625 -36.125 8.835938 -35.738281 9.609375 -34.96875 C 10.378906 -34.195312 10.765625 -33.300781 10.765625 -32.28125 C 10.765625 -31.25 10.367188 -30.347656 9.578125 -29.578125 C 8.796875 -28.816406 7.859375 -28.4375 6.765625 -28.4375 Z M 6.765625 -28.4375 "/></g></g></g><g fill="#000000" fill-opacity="1"><g transform="translate(43.798194, 49.518804)"><g><path d="M 4.609375 -35.859375 L 11.53125 -35.859375 L 23.828125 -20.5 L 36.125 -35.859375 L 43.03125 -35.859375 L 43.03125 0 L 35.359375 0 L 35.359375 -23.5625 L 23.828125 -9.21875 L 12.296875 -23.5625 L 12.296875 0 L 4.609375 0 Z M 4.609375 -35.859375 "/></g></g></g><g fill="#000000" fill-opacity="1"><g transform="translate(91.448586, 49.518804)"><g><path d="M 4.609375 -35.859375 L 31.25 -35.859375 L 31.25 -28.6875 L 12.296875 -28.6875 L 12.296875 -21.78125 L 27.15625 -21.78125 L 27.15625 -14.859375 L 12.296875 -14.859375 L 12.296875 -7.171875 L 31.765625 -7.171875 L 31.765625 0 L 4.609375 0 Z M 4.609375 -35.859375 "/></g></g></g></g></g><g fill="#000000" fill-opacity="1"><g transform="translate(126.091862, 88.773258)"><g><path d="M 2.15625 -14.34375 L 6.65625 -14.34375 C 7.707031 -14.34375 8.6875 -14.148438 9.59375 -13.765625 C 10.507812 -13.390625 11.304688 -12.875 11.984375 -12.21875 C 12.660156 -11.5625 13.1875 -10.796875 13.5625 -9.921875 C 13.945312 -9.054688 14.140625 -8.140625 14.140625 -7.171875 C 14.140625 -6.203125 13.945312 -5.28125 13.5625 -4.40625 C 13.1875 -3.539062 12.660156 -2.78125 11.984375 -2.125 C 11.304688 -1.46875 10.507812 -0.945312 9.59375 -0.5625 C 8.6875 -0.1875 7.707031 0 6.65625 0 L 2.15625 0 Z M 6.65625 -1.4375 C 7.507812 -1.4375 8.296875 -1.585938 9.015625 -1.890625 C 9.742188 -2.191406 10.375 -2.597656 10.90625 -3.109375 C 11.4375 -3.628906 11.851562 -4.238281 12.15625 -4.9375 C 12.457031 -5.632812 12.609375 -6.378906 12.609375 -7.171875 C 12.609375 -7.960938 12.457031 -8.707031 12.15625 -9.40625 C 11.851562 -10.101562 11.4375 -10.710938 10.90625 -11.234375 C 10.375 -11.753906 9.742188 -12.164062 9.015625 -12.46875 C 8.296875 -12.769531 7.507812 -12.921875 6.65625 -12.921875 L 3.6875 -12.921875 L 3.6875 -1.4375 Z M 6.65625 -1.4375 "/></g></g></g><g fill="#000000" fill-opacity="1"><g transform="translate(144.781425, 88.773258)"><g><path d="M 6.359375 -14.34375 L 7.796875 -14.34375 L 13.734375 0 L 12.09375 0 L 10.453125 -4 L 3.6875 -4 L 2.046875 0 L 0.40625 0 Z M 9.84375 -5.4375 L 7.078125 -12.203125 L 4.3125 -5.4375 Z M 9.84375 -5.4375 "/></g></g></g><g fill="#000000" fill-opacity="1"><g transform="translate(162.651347, 88.773258)"><g><path d="M 2.15625 -14.34375 L 3.6875 -14.34375 L 3.6875 0 L 2.15625 0 Z M 2.15625 -14.34375 "/></g></g></g><g fill="#000000" fill-opacity="1"><g transform="translate(172.222018, 88.773258)"><g><path d="M 2.15625 -14.34375 L 3.6875 -14.34375 L 3.6875 -1.4375 L 11.0625 -1.4375 L 11.0625 0 L 2.15625 0 Z M 2.15625 -14.34375 "/></g></g></g><g fill="#000000" fill-opacity="1"><g transform="translate(185.788489, 88.773258)"><g><path d="M 5.734375 -5.015625 L 0.40625 -14.34375 L 2.15625 -14.34375 L 6.453125 -6.65625 L 6.5625 -6.65625 L 10.859375 -14.34375 L 12.609375 -14.34375 L 7.28125 -5.015625 L 7.28125 0 L 5.734375 0 Z M 5.734375 -5.015625 "/></g></g></g><g fill="#000000" fill-opacity="1"><g transform="translate(201.91655, 88.773258)"><g/></g></g><g fill="#000000" fill-opacity="1"><g transform="translate(209.950328, 88.773258)"><g><path d="M 2.15625 -14.34375 L 3.484375 -14.34375 L 12.296875 -2.765625 L 12.296875 -14.34375 L 13.84375 -14.34375 L 13.84375 0 L 12.5 0 L 3.6875 -11.578125 L 3.6875 0 L 2.15625 0 Z M 2.15625 -14.34375 "/></g></g></g><g fill="#000000" fill-opacity="1"><g transform="translate(229.66453, 88.773258)"><g><path d="M 2.15625 -14.34375 L 12 -14.34375 L 12 -12.921875 L 3.6875 -12.921875 L 3.6875 -8.203125 L 10.359375 -8.203125 L 10.359375 -6.765625 L 3.6875 -6.765625 L 3.6875 -1.4375 L 12.203125 -1.4375 L 12.203125 0 L 2.15625 0 Z M 2.15625 -14.34375 "/></g></g></g><g fill="#000000" fill-opacity="1"><g transform="translate(246.509857, 88.773258)"><g><path d="M 0.609375 -14.34375 L 2.25 -14.34375 L 6.046875 -2.359375 L 9.9375 -14.34375 L 11.375 -14.34375 L 15.265625 -2.359375 L 19.0625 -14.34375 L 20.703125 -14.34375 L 15.984375 0 L 14.453125 0 L 10.65625 -12 L 6.875 0 L 5.328125 0 Z M 0.609375 -14.34375 "/></g></g></g><g fill="#000000" fill-opacity="1"><g transform="translate(271.551973, 88.773258)"><g><path d="M 5.734375 0.203125 C 4.921875 0.203125 4.207031 0.09375 3.59375 -0.125 C 2.988281 -0.34375 2.488281 -0.585938 2.09375 -0.859375 C 1.625 -1.171875 1.234375 -1.535156 0.921875 -1.953125 L 1.84375 -3 C 2.101562 -2.65625 2.414062 -2.359375 2.78125 -2.109375 C 3.101562 -1.878906 3.507812 -1.675781 4 -1.5 C 4.488281 -1.320312 5.066406 -1.234375 5.734375 -1.234375 C 6.816406 -1.234375 7.632812 -1.476562 8.1875 -1.96875 C 8.738281 -2.46875 9.015625 -3.109375 9.015625 -3.890625 C 9.015625 -4.359375 8.898438 -4.738281 8.671875 -5.03125 C 8.453125 -5.320312 8.160156 -5.570312 7.796875 -5.78125 C 7.429688 -5.988281 7.015625 -6.160156 6.546875 -6.296875 C 6.085938 -6.441406 5.613281 -6.585938 5.125 -6.734375 C 4.632812 -6.890625 4.15625 -7.0625 3.6875 -7.25 C 3.226562 -7.4375 2.816406 -7.675781 2.453125 -7.96875 C 2.085938 -8.257812 1.789062 -8.617188 1.5625 -9.046875 C 1.34375 -9.484375 1.234375 -10.019531 1.234375 -10.65625 C 1.234375 -11.175781 1.335938 -11.671875 1.546875 -12.140625 C 1.753906 -12.617188 2.0625 -13.035156 2.46875 -13.390625 C 2.875 -13.742188 3.359375 -14.023438 3.921875 -14.234375 C 4.492188 -14.453125 5.132812 -14.5625 5.84375 -14.5625 C 6.539062 -14.5625 7.148438 -14.460938 7.671875 -14.265625 C 8.191406 -14.078125 8.628906 -13.863281 8.984375 -13.625 C 9.390625 -13.351562 9.742188 -13.046875 10.046875 -12.703125 L 9.015625 -11.6875 C 8.796875 -11.945312 8.53125 -12.1875 8.21875 -12.40625 C 7.945312 -12.582031 7.613281 -12.742188 7.21875 -12.890625 C 6.832031 -13.046875 6.375 -13.125 5.84375 -13.125 C 5.351562 -13.125 4.914062 -13.050781 4.53125 -12.90625 C 4.144531 -12.769531 3.820312 -12.585938 3.5625 -12.359375 C 3.300781 -12.140625 3.101562 -11.882812 2.96875 -11.59375 C 2.832031 -11.300781 2.765625 -10.988281 2.765625 -10.65625 C 2.765625 -10.039062 2.957031 -9.566406 3.34375 -9.234375 C 3.726562 -8.898438 4.207031 -8.625 4.78125 -8.40625 C 5.363281 -8.1875 5.988281 -7.988281 6.65625 -7.8125 C 7.332031 -7.632812 7.957031 -7.394531 8.53125 -7.09375 C 9.113281 -6.800781 9.597656 -6.40625 9.984375 -5.90625 C 10.367188 -5.414062 10.5625 -4.742188 10.5625 -3.890625 C 10.5625 -3.304688 10.453125 -2.765625 10.234375 -2.265625 C 10.023438 -1.765625 9.710938 -1.328125 9.296875 -0.953125 C 8.890625 -0.585938 8.382812 -0.300781 7.78125 -0.09375 C 7.1875 0.101562 6.503906 0.203125 5.734375 0.203125 Z M 5.734375 0.203125 "/></g></g></g><path fill="#000000" d="M 18.558594 58.898438 C 23.105469 57.539062 27.792969 56.628906 32.589844 56.191406 C 32.925781 53.507812 33.40625 50.898438 34.039062 48.363281 C 24.738281 33.878906 5.0625 32.167969 5.0625 32.167969 C 5.0625 32.167969 6.675781 49.121094 18.558594 58.898438 " fill-opacity="1" fill-rule="nonzero"/><g clip-path="url(#c8d2c42a0c)"><path fill="#000000" d="M 64 60.269531 C 94.875 45.535156 98.347656 5.65625 98.347656 5.65625 C 98.347656 5.65625 45.933594 10.621094 39.457031 55.898438 C 47.96875 55.921875 56.21875 57.414062 64 60.269531 " fill-opacity="1" fill-rule="nonzero"/></g><g clip-path="url(#7b3d619c45)"><path fill="#000000" d="M 84.234375 95.898438 C 82.535156 97.269531 80.074219 97.058594 78.601562 95.445312 C 76.875 93.554688 75.070312 91.804688 73.191406 90.191406 C 71.550781 88.792969 71.304688 86.351562 72.597656 84.628906 L 72.601562 84.621094 C 74.023438 82.726562 76.753906 82.421875 78.550781 83.964844 C 80.683594 85.796875 82.734375 87.789062 84.6875 89.9375 C 86.277344 91.6875 86.070312 94.414062 84.234375 95.898438 Z M 94.894531 124.472656 C 92.886719 118.28125 90.351562 112.570312 87.324219 107.394531 C 86.285156 105.625 86.726562 103.359375 88.34375 102.097656 C 90.300781 100.570312 93.15625 101.113281 94.410156 103.253906 C 97.734375 108.9375 100.507812 115.1875 102.699219 121.9375 C 104.660156 127.976562 106.117188 134.335938 107.082031 140.972656 L 113.335938 140.949219 C 106.78125 92.875 75.933594 62.527344 38.984375 62.667969 C 2.035156 62.808594 -28.578125 93.386719 -34.773438 141.511719 L 98.789062 141.003906 C 97.894531 135.242188 96.597656 129.71875 94.894531 124.472656 " fill-opacity="1" fill-rule="nonzero"/></g></g></g></g></svg>