<svg transform="scale(1)" version="1.1" id="mnmZJLXwRj" xmlns="http://www.w3.org/2000/svg" xmlns:xlink="http://www.w3.org/1999/xlink" x="0px" y="0px" viewBox="0 0 500 500" xml:space="preserve" class="pbimage_pbimage__wrapper__image__0LEis false"><title>Searching</title><style type="text/css"> .st0{fill:#FFFFFF;} .st1{fill:#000005;} .st2{fill:#59BE4C;}
 .st2{fill:#059669;}
 .st1{fill:#000005;}
 .st0{fill:#FFFFFF;}</style><g id="character"><path class="st0" d="M189.7,241.3c0,0,75.5,9,91.1-9.5c0,0-10.4-54.9-21.6-62.5c-20.1-13.6-53.3-2.9-58.6,11
		C190,208.9,189.7,241.3,189.7,241.3z" fill="#FFFFFF"></path><path class="st1" d="M189.6,242c4.5,0.5,8.9,0.9,13.4,1.2c9.8,0.7,19.7,1.1,29.6,1c10.7-0.1,21.4-0.7,31.9-3
		c4.3-0.9,8.4-2.3,12.3-4.2c1.6-0.8,3.1-1.8,4.5-2.9c0.6-0.5,1.9-1.4,1.9-2.3c-0.1-0.8-0.2-1.5-0.4-2.2c-0.3-1.4-0.6-2.9-0.9-4.3
		c-0.9-4.3-1.9-8.6-2.9-12.8c-2.5-10.3-5.3-20.7-9.4-30.5c-1.5-3.7-3.2-7.5-5.8-10.6c-1.3-1.5-2.9-2.7-4.6-3.6c-3-1.7-6.2-3-9.5-3.8
		c-13.4-3.5-27.6-1.9-39.8,4.5c-4.4,2.4-8.7,5.6-11,10.1c-1.8,3.5-2.8,7.5-3.9,11.3c-1.2,4.2-2.3,8.5-3.2,12.8
		c-2.5,12-4,24.1-4.4,36.4c0,0.6,0,1.3,0,1.9c0,1.1,4.9,1.5,5,0.7c0.2-8.5,0.9-16.9,2.2-25.3c1.1-8,2.8-16,4.9-23.9
		c1.1-4.1,2.4-8.2,3.9-12.1c0.9-2,2.2-3.9,3.8-5.4c3.9-3.9,9.1-6.6,14.3-8.4c5.9-2.1,12.2-3,18.5-2.7c6.1,0.2,12.1,2.1,17.1,5.6
		c2.5,1.8,4.2,5.1,5.6,7.9c4.5,9,7.2,18.9,9.7,28.6c2,7.8,3.8,15.6,5.4,23.4c0.2,0.6,0.3,1.3,0.4,2c-0.1,0.6-1.6,1.8-2.2,2.2
		c-3,2.2-6.4,3.9-10,4.9c-9.3,2.9-19.2,3.7-28.9,4.1c-10,0.4-19.6,0.1-29.6-0.4c-3.7-0.2-7.4-0.5-11.1-0.8l-2.1-0.2l-0.9-0.1h-0.4
		c0.1,0,0.6,0.1,0,0l-2.4-0.2l-0.8-0.1c-0.4,0-2.5-0.4-2.6,0.4S189.3,242,189.6,242z" fill="#000005"></path><path class="st1" d="M206,202.3c11.6-4.9,25.8-11.7,29.8-24.8c0.9-3-3.7-3.9-4.6-1.2c-3.6,11.8-16.9,17.6-27.3,22
		c-1.2,0.4-1.8,1.7-1.3,2.9s1.7,1.8,2.9,1.3C205.7,202.5,205.8,202.4,206,202.3L206,202.3z" fill="#000005"></path><path class="st1" d="M202.5,198.2c8.7-6.5,18.1-13.5,22.3-23.9c0.5-1,0.2-2.3-0.9-2.8c-0.1,0-0.1-0.1-0.2-0.1
		c-1.3-0.5-2.7,0-3.3,1.2c-3.9,9.6-12.5,16.1-20.6,22.1c-1.1,0.6-1.4,2-0.8,3c0,0,0,0.1,0,0.1C199.9,198.8,201.4,198.9,202.5,198.2
		L202.5,198.2z" fill="#000005"></path><path class="st0" d="M270.2,226.3c9.2-12.7-10.4-44.8-10.4-44.8c-6.2-0.3-17-4.6-17-4.6c5.6,17.9-15.2,26-15.2,26
		c-5.8-9.3-16.9-4.1-14.9,5.5s11.5,9.4,11.5,9.4s-1.5,24.6-0.1,28.4c0,0,17.3,8.8,25.3-6.5C249.4,239.7,263.9,235,270.2,226.3z" fill="#FFFFFF"></path><path class="st1" d="M271.8,228.2c2.8-4,3.1-8.9,2.5-13.6c-0.8-5.4-2.2-10.8-4.4-15.8c-1.8-4.5-3.9-8.9-6.2-13.1
		c-1.2-2.2-2.6-6-5.5-6.3c-5.4-0.4-10.9-2.5-15.9-4.5c-0.5-0.3-1.2-0.1-1.4,0.4c-0.1,0.3-0.2,0.6-0.1,0.9c1.8,5.3,0.8,11.2-2.6,15.6
		c-1.4,1.9-3.1,3.5-5,4.9c-0.8,0.6-1.7,1.2-2.6,1.8c-0.6,0.4-1.6,1-2,1.1c-0.8,0.4-1.6,0.8-2.5,1.2l2.8,1.6
		c-2.1-3.3-5.5-6.4-9.7-6.6c-3.2-0.1-6.1,1.5-7.7,4.3c-1.9,3.3-1.3,7.7,0.2,11c1.6,3.4,4.3,6,7.8,7.5c1.7,0.7,3.5,1.1,5.4,1.1
		l-2.9-3.2c-0.5,7.8-0.9,15.6-0.6,23.5c0,1.7,0.2,3.4,0.5,5.1c0.5,1.9,1.8,2.7,3.4,3.4c3.4,1.5,7.1,2.2,10.8,2.2
		c2.8,0,5.6-0.7,8.1-2.1c3-1.8,5.4-4.4,6.9-7.5l-0.6,0.5c2.8-0.9,5.6-2.1,8.2-3.5C263.7,235.7,268.5,232.6,271.8,228.2
		c1.2-1.6-2.3-5.2-3.3-3.7c-4.9,6.6-12.8,10.2-20.2,13.1c-0.4,0.2-0.8,0.5-1,0.9c-0.7,1.2-1.4,2.3-2.3,3.3c-1.4,1.6-3.1,2.9-5.1,3.7
		c-3.3,1.3-7,1.5-10.5,0.7c-1.4-0.3-2.7-0.7-4-1.2c-0.4-0.2-0.8-0.4-1.3-0.5s0.6,0.3,0,0l1.7,1.9c-0.1-0.3,0.1,0.6,0,0.1
		c0-0.1-0.1-0.3-0.1-0.4c-0.1-0.3-0.1-0.6-0.1-1c0-0.3-0.1-0.6-0.1-0.9c0-0.5-0.1-1-0.1-1.5c-0.1-2.3-0.1-4.6,0-7
		c0.1-4.6,0.3-9.1,0.5-13.7c0.1-1,0.1-2,0.2-3.1c0.1-1.3-1.5-3.3-2.9-3.2c-0.3,0-0.6,0-0.9,0s-0.6-0.1-0.9-0.1c-0.3,0-0.7-0.1-1-0.2
		c-0.4-0.1-0.9-0.3-1.3-0.4c-0.4-0.2-0.9-0.4-1.2-0.6c-0.4-0.2-0.7-0.5-1-0.8c-0.3-0.3-0.6-0.6-0.9-1c-2.8-3.8-2-10.9,3.5-12.3
		c2.9-0.7,5.1,0.8,6.6,3.1c0.5,0.7,1.8,2,2.8,1.6c7.1-2.8,14.3-8.8,16.3-16.4c0.9-3.7,0.8-7.5-0.4-11.1l-1.5,1.3
		c2.1,0.8,4.2,1.6,6.3,2.2c3.6,1.3,7.3,2.1,11.1,2.5l-2.4-1.7c0.6,1,1.2,2.1,1.8,3.1l0.4,0.8l0.3,0.5c0.4,0.6,0.7,1.3,1,2
		c0.7,1.4,1.5,2.9,2.1,4.4c3.1,6.7,6.1,14,6.6,21.5c0.2,3.4,0,7.3-2.1,10.2C267.4,226.1,270.8,229.6,271.8,228.2z" fill="#000005"></path><path class="st1" d="M261.9,192.6c1.1,0,2,0.8,2.1,1.9c0,0.1,0,0.2,0,0.3c-0.2,2.2-3,1.9-3.4,0c-0.3-0.9,0.1-1.9,1-2.2
		C261.7,192.6,261.8,192.6,261.9,192.6z" fill="#000005"></path><path class="st1" d="M212.4,220.4c-0.4,6.4-1,12.9-1.8,19.3c-0.3,1.9,3.8,4.6,4.1,2c0.8-6.4,1.4-12.8,1.8-19.3
		c-0.1-1.2-0.9-2.3-2-2.8C213.6,219.2,212.4,219.2,212.4,220.4L212.4,220.4z" fill="#000005"></path><path class="st1" d="M197.5,214.4c2.8,0.3,5.7,0.1,8.5-0.7c2.9-0.7,5.7-1.8,8.3-3.4c0.6-0.4-1.6-0.8-1.7-0.8
		c-0.6-0.1-1.3-0.1-1.9-0.1c-0.4,0-0.8,0-1.2,0.2c-2.2,1.4-4.5,2.4-7,3c-0.6,0.2-1.2,0.3-1.8,0.4l-0.8,0.2l-0.4,0.1h-0.1l-0.7,0.1
		h-0.3h-0.1c0.4,0-0.7,0-0.1,0c0.4,0,0.1,0,0,0h0.5c0.5,0.1,0.7,0.1,0.4,0.1c-0.6-0.1-1.3-0.1-1.9-0.1c-0.2,0-1,0-1.2,0.2
		C195.3,214,197.3,214.3,197.5,214.4L197.5,214.4z" fill="#000005"></path><path class="st1" d="M264.4,221.9c0-0.1,0.1-0.2,0.1-0.4l-0.2,0.5c0.2-0.4,0.5-0.9,0.8-1.2l-0.4,0.4c0.3-0.3,0.6-0.6,1-0.8
		l-0.5,0.3l0.3-0.2c0.3-0.1,0.5-0.3,0.7-0.5c0.4-0.4,0.5-1,0.4-1.5c0-0.3-0.2-0.5-0.4-0.8c-0.4-0.5-0.9-0.9-1.6-1
		c-0.6-0.2-1.3-0.1-1.9,0.1c-0.4,0.2-0.8,0.5-1.2,0.8c-0.4,0.3-0.7,0.6-1,1c-0.5,0.6-0.8,1.3-1,2c-0.1,0.3-0.1,0.5,0,0.8
		c0,0.3,0.2,0.5,0.4,0.8c0.2,0.3,0.4,0.5,0.7,0.6c0.3,0.2,0.6,0.3,0.9,0.4c0.6,0.2,1.3,0.1,1.9-0.1l0.5-0.3
		C264.1,222.6,264.3,222.3,264.4,221.9L264.4,221.9z" fill="#000005"></path><path class="st1" d="M401.9,217.3c0,0-30.5,75.8-109.5,81.3l5-44.3c0,0,44.6-7.5,76-54.6L401.9,217.3z" fill="#000005"></path><path class="st1" d="M399.6,218c-1,2.5-2.3,5-3.6,7.4c-3.3,6.2-7,12.2-11.1,17.9c-5.7,8-12.2,15.5-19.4,22.2
		c-8.4,8-18,14.7-28.3,20c-11.8,6-24.6,9.8-37.8,11.3c-1.9,0.2-3.8,0.4-5.7,0.5l0.9,0.5l1.7-15l2.7-23.8l0.6-5.5l-3.2,1.8
		c6.3-1.2,12.4-3.2,18.3-5.8c14.1-5.9,27.1-14.1,38.4-24.4c8.5-7.7,16-16.4,22.4-26l-4.3,1.5l25,15.4l3.5,2.1
		c0.8,0.5,2.4-0.2,3.1-0.6c0.3-0.2,2-1.1,1.2-1.6l-25-15.4l-3.5-2.2c-1-0.6-3.7,0.6-4.3,1.5c-10.1,15.3-23.2,28.3-38.6,38.3
		c-3,1.9-5.8,3.6-8.9,5.2c-1.4,0.7-2.8,1.4-4.2,2.1c-0.6,0.3-1.3,0.6-2,0.9l-0.6,0.2l-1.2,0.5c-2.3,1-4.7,1.9-7.1,2.8l-0.4,0.1
		l-0.7,0.2c-0.5,0.2-1,0.4-1.6,0.5c-0.9,0.3-1.8,0.6-2.7,0.8l-2.4,0.6c-0.4,0.1,0.6-0.1,0,0l-0.4,0.1l-0.8,0.2
		c-0.5,0.1-1,0.2-1.5,0.3c-0.7,0.1-3.1,0.9-3.2,1.8l-1.7,14.9l-2.7,23.9l-0.6,5.5c-0.1,0.5,0.5,0.5,0.9,0.5
		c14.6-1,28.9-4.5,42.2-10.5c11.5-5.2,22.3-12,31.9-20.2c8-6.9,15.3-14.7,21.7-23.2c4.7-6.2,9-12.8,12.7-19.7
		c1.2-2.1,2.3-4.3,3.3-6.4c0.6-1,1-2,1.4-3.1c0,0,0-0.1,0-0.1c0.3-0.9-1.8-0.4-2-0.3C401.3,216.6,399.9,217.1,399.6,218z" fill="#000005"></path><path class="st1" d="M162,326c0,0,29.5-75.1,55.7-88.7s39.3,15.1,46.2,37.4s8.1,78.5,8.1,78.5L162,326z" fill="#000005"></path><path class="st1" d="M164,327.6c1.1-2.9,2.4-5.8,3.6-8.7c3.1-7.1,6.3-14.2,9.7-21.2c4.3-8.8,8.8-17.4,13.8-25.7
		c4.7-8.1,10.1-15.7,16.2-22.8c5.7-6.3,12.4-11.7,20.9-13.2c4.3-0.8,8.7-0.1,12.6,2c1.8,1,3.4,2.3,4.8,3.8c1.6,1.7,3.1,3.5,4.4,5.5
		c2.9,4.4,5.3,9,7.3,13.9c1.9,4.7,3.6,9.5,5,14.3c2.5,8.9,3.6,18.3,4.6,27.5c1.1,10.1,1.8,20.2,2.3,30.3c0.3,6,0.6,12,0.7,17.9
		c0,0.3,0,0.6,0,0.9l1.2-0.5l-11-2.7l-26.3-6.5l-31.8-7.9l-27.5-6.8c-4.4-1.1-8.9-2.3-13.3-3.3l-0.2,0c-1-0.2-1.4,0.4-0.9,1.2
		c0.6,1.1,1.6,1.8,2.8,2.2l10.9,2.7l26.3,6.6l31.8,7.8l27.5,6.8c4.4,1.1,8.9,2.3,13.3,3.3l0.2,0c0.4,0.1,1.2,0.1,1.2-0.4
		c-0.1-4.4-0.3-8.9-0.5-13.3c-0.4-9.8-1-19.5-1.9-29.3c-0.7-10.1-2.1-20.2-4.2-30.1c-2.4-9.9-5.9-19.5-10.6-28.5
		c-4.9-8.9-12.1-18-22.4-20.6c-9.2-2.3-18.6,1.8-25.5,7.8c-6.7,5.8-12.1,13.1-16.9,20.5c-5.5,8.5-10.6,17.2-15.1,26.2
		c-4,7.8-7.7,15.6-11.2,23.6c-1.9,4.3-3.8,8.6-5.5,13l-0.2,0.6C159.4,326.1,163.6,328.7,164,327.6z" fill="#000005"></path><path class="st1" d="M209.1,284.7c0,0,38.4,46.7,74.4,43.2s36-76.1,36-76.1l-37.5-16l-22,46.8" fill="#000005"></path><path class="st1" d="M207.3,285c6.4,7.6,13.4,14.5,21,20.9c13.1,11,28.7,21.4,46,23.7c6.9,0.9,14.2,0.5,20.5-2.9
		c5.3-2.9,9.4-7.4,12.6-12.5c6.9-11,10.1-24.2,12.1-36.9c1.3-7.9,2-16,2.1-24c0-0.1,0-0.3,0-0.4c-0.1-1.2-0.8-2.2-1.9-2.6l-32.9-14
		l-4.7-2c-0.5-0.2-1.9-0.7-2.3,0.1l-7.5,15.8l-11.8,25.1l-2.7,5.8c-0.5,1,0.4,2,1.2,2.6c0.5,0.4,2.4,1.3,2.9,0.3l7.5-15.8l11.8-25.1
		l2.7-5.8h-2.3l32.9,14l4.7,2l-1.9-2.6c-0.1,6.5-0.5,13-1.4,19.4c-1.5,12.3-4.1,24.9-9.7,36.1c-2.6,5.2-5.9,10.3-10.5,14.1
		c-4.7,3.8-10.5,5.9-16.5,5.9c-16.6,0.3-32.1-9.2-44.6-19c-5.6-4.4-10.9-9.1-15.8-14.1c-2.7-2.8-5.4-5.6-7.9-8.6
		c0.3,0.3,0.3,0.4,0,0c-0.7-0.8-1.9-1.8-3.1-1.6S206.7,284.2,207.3,285L207.3,285z" fill="#000005"></path><circle class="st0" cx="344.8" cy="197.2" r="25.9" fill="#FFFFFF"></circle><path class="st2" d="M368.4,198.1c-0.8,10.4-7.7,19.3-17.5,22.6c-4.7,1.6-9.9,1.7-14.6,0.2c-4.3-1.6-8-4.5-10.5-8.3
		c-6-8.7-6-20.2-0.1-29c5.6-8.3,16.2-13,26.1-10.7C362.6,175.5,369.1,187.3,368.4,198.1c-0.1,1.3,4.5,2.5,4.6,1.9
		c0.8-11.8-6.3-22.1-16.8-27s-23.3-3.8-31.8,4.6c-8.1,8.1-10.1,20.6-4.8,30.8c5.5,10.3,17.8,16.7,29.3,15.7
		c12.8-1.1,23-11.3,24.1-24.1C373,198.7,368.4,197.5,368.4,198.1z" fill="#059669"></path><circle class="st0" cx="397.1" cy="200.6" r="25.9" fill="#FFFFFF"></circle><path class="st2" d="M420.5,202.5c-0.8,9.7-7.6,18.6-17.1,21.3c-9.5,2.6-19.7-1.1-25.3-9.2c-5.8-8.4-5.8-19.6,0.1-28
		c5.7-8,15.8-11.7,25.3-9.1C414.3,180.5,421.2,191.4,420.5,202.5c-0.2,2.5,4.8,2.6,5,0.1c0.7-11.7-5.9-22.6-16.6-27.3
		c-11.1-4.8-24-2.3-32.5,6.3c-8.1,8.5-9.9,21.2-4.6,31.6c5.7,10.6,17.3,16.6,29.3,15c13.2-1.8,23.3-12.5,24.5-25.7
		C425.7,200,420.7,199.9,420.5,202.5z" fill="#059669"></path><path class="st2" d="M289.4,203.4l-31-2.8c0,0-4.5-4.6,1.3-10.9l40.2-1.6L289.4,203.4z" fill="#059669"></path><path class="st0" d="M287.3,220c0,0-6.8-7.1-2.8-19.9s10.6-11.8,11.1-9.8c0,0,2.5-8.2,7.4-8s5.4,2.1,5.4,2.1s5.2-6.2,10.1-2.1
		s-1.5,10.8-0.6,18.9s9,10.8,8.5,21.9s-7,28.6-7,28.6s-37.3-12.1-37.5-13.9S287.3,220,287.3,220z" fill="#FFFFFF"></path><path class="st1" d="M289.1,219.2c-0.2-0.2-0.4-0.4-0.5-0.7s-0.4-0.5-0.6-0.8c-0.3-0.4,0,0.1-0.1-0.2l-0.4-0.6
		c-1.2-2.4-1.9-5-2-7.6c-0.1-4.1,0.8-8.1,2.6-11.8c0.6-1.4,1.5-2.8,2.5-4c0.4-0.4,0.8-0.8,1.2-1.1l0.6-0.4l0.3-0.2
		c0.3-0.2-0.4,0.2,0.1,0l0.6-0.3l0.3-0.1c0.4-0.1-0.3,0,0,0l0.6-0.1c-0.5,0.1-0.2-0.1,0,0s-0.6-0.2,0,0c0.3,0.1-0.6-0.3-0.3-0.1
		s0.3,0.3-0.3-0.2c0.4,0.3-0.3-0.4-0.1-0.2l-0.2-0.5c0.4,1.9,3.9,3.5,4.7,1l0.1-0.2c-0.2,0.5,0,0.1,0.1-0.1c0.2-0.6,0.5-1.1,0.7-1.7
		c0.6-1.4,1.5-2.6,2.5-3.7c0.5-0.5,1.1-0.8,1.7-1c0.8-0.1,1.6,0,2.3,0.2c0.2,0.1,0.5,0.1,0.7,0.2s0.7,0.2,0.1,0
		c0.1,0,0.2,0.1,0.3,0.2c-0.5-0.5-0.2-0.1-0.1,0s-0.2-0.2-0.2-0.2s0.2,0.3,0-0.1s0.1,0.6-0.2-0.5c0.2,0.9,0.9,1.6,1.8,2
		c0.6,0.3,1.9,0.5,2.4-0.1c1.1-1.4,2.5-2.4,4.1-3c2.1-0.6,3.6,0.9,3.6,2.9c0,3.1-1.5,6.1-2.1,9.1c-0.7,3.2-0.5,6.5,0.6,9.6
		c1.9,5,6.2,8.4,7.3,13.7c0.5,3.2,0.4,6.5-0.3,9.6c-0.6,3.3-1.3,6.5-2.1,9.7c-1.2,4.4-2.5,8.8-4,12.8l2.5-0.6
		c-7.2-2.3-14.3-4.7-21.4-7.2c-4.3-1.5-8.7-3.1-12.9-4.8c-0.3-0.1-0.5-0.2-0.1,0l-0.5-0.2l-0.9-0.4l-0.6-0.3c-0.5-0.2,0.5,0.5,0.1,0
		c0.3,0.3,0.5,0.6,0.7,1c0,0.1,0,0.6,0.1,0.4c0.1-0.3,0.1-0.7,0.2-1c0.2-1,0.5-2,0.8-2.9c0.8-2.9,1.8-5.8,2.7-8.6
		c0.4-1.2,0.8-2.4,1.2-3.5c0.1-0.2,0,0.1,0,0.1l0.1-0.4l0.1-0.4l0.1-0.4c0.3-1.1-0.2-2.3-1.3-2.8c-0.7-0.4-2.7-0.8-3.1,0.4
		c-1.4,4.1-2.8,8.3-4.1,12.5c-0.7,1.9-1.2,3.8-1.5,5.8c-0.1,1.7,1.4,2.7,2.8,3.4c4,1.9,8,3.5,12.2,4.8c5.1,1.9,10.3,3.6,15.5,5.4
		c3,1,6.1,2,9.1,3c0.7,0.2,2.1,0.3,2.5-0.6c1.5-4,2.8-8,3.9-12.1c1-3.4,1.8-6.9,2.4-10.4c0.8-3.5,0.9-7.1,0.6-10.6
		c-0.6-3.2-1.8-6.2-3.6-8.8c-1.5-2.3-3.1-4.2-4.1-6.7c-1.3-3.1-0.7-6.6,0.2-9.8c0.8-2.9,2.2-6.1,1.5-9.2c-1.2-4.2-5.3-6.9-9.7-6.3
		c-2.5,0.5-4.7,1.9-6.3,3.8l4.2,1.9c-0.6-1.6-1.9-2.9-3.6-3.4c-2.4-1-5.6-1.5-8-0.2c-3.1,1.6-4.9,5.2-5.9,8.5l4.7,1
		c-0.6-2.4-3.2-3.6-5.5-3.4c-2.7,0.2-4.9,2.1-6.4,4.2c-2.7,3.9-4.4,8.4-4.9,13.1c-0.5,3.8,0,7.7,1.5,11.4c0.7,1.8,1.6,3.4,2.9,4.9
		c0.8,1,2.1,1.4,3.3,1.1c0.8-0.4,1.1-1.4,0.7-2.1C289.4,219.5,289.3,219.4,289.1,219.2z" fill="#000005"></path><path class="st1" d="M297.9,203.6c-0.1-0.3-0.2-0.7-0.3-1c-0.1-0.4-0.2-0.8-0.3-1.2s0,0.1,0-0.1l-0.1-0.4c0-0.3-0.1-0.6-0.1-0.8
		c-0.4-2.9-0.1-5.9,0.8-8.6c0.3-1-0.8-1.9-1.6-2.3c-0.5-0.2-2.5-1.1-2.8-0.1c-1,3-1.3,6.2-0.9,9.3c0.2,1.4,0.5,2.8,1,4.1
		c0.6,1.1,1.6,1.8,2.8,2C297,204.7,298.3,204.6,297.9,203.6L297.9,203.6z" fill="#000005"></path><path class="st1" d="M306,184.2c-1.1,1.9-1.9,4-2.5,6.1c-1.3,4-1.2,8.4,0.3,12.4c0.5,1,1.8,1.5,2.8,1.1c0.8-0.2,2.5-1.2,2-2.3
		c-2.2-5.4-1-11.8,2-16.6c0.6-1-0.5-2-1.5-2.1C307.9,182.6,306.7,183.1,306,184.2L306,184.2z" fill="#000005"></path><path class="st1" d="M351.6,190.9c0,0,5.6,2.3,2.9,7.6s-9.1,1.9-8.2-3.3S351.6,190.9,351.6,190.9z" fill="#000005"></path><path class="st1" d="M404.8,195.7c0,0,5.6,2.4,2.9,7.6s-9.1,1.9-8.2-3.3S404.8,195.7,404.8,195.7z" fill="#000005"></path><path class="st0" d="M255.5,199.1c4.3,0.7,8.7,0.7,13,0.1c14.7-1.7,17.7,2.7,14.2,6.7s-23.2,7.4-23.2,7.4" fill="#FFFFFF"></path><path class="st1" d="M256.2,200.9c4.5,0.7,9,0.8,13.5,0.2c3-0.4,6-0.5,9-0.2c0.9,0.1,1.7,0.3,2.6,0.6l0.5,0.2c-0.5-0.2,0,0,0.1,0.1
		c0.4,0.4-0.3-0.4,0,0s-0.2-0.2,0,0c-0.6-0.5-0.1-0.1-0.1-0.1c-0.5-0.4,0.1-0.2,0,0s0-0.1,0-0.1c0,0.1,0,0.2,0,0.3
		c0,0.4,0-0.4,0,0.1c0,0.1,0,0.2-0.1,0.4c-0.1,0.2-0.1,0.5-0.2,0.7c-0.6,1.1-1.6,2-2.7,2.5c-3.6,1.9-7.8,2.9-11.8,3.9
		c-2.9,0.7-5.9,1.3-8.8,1.9c-2.4,0.4,0.7,4.1,2.4,3.8c2.8-0.5,5.5-1.1,8.3-1.7c4.4-1.1,9.1-2.1,13.1-4.2c2.6-1.4,5-4.1,3.6-7.2
		c-2.1-4.6-8.5-5.2-12.9-5.2c-6,0.1-12.1,1.5-18.1,0.3c-1.1-0.2-1.6,0.6-1.3,1.5C254,199.9,255,200.7,256.2,200.9L256.2,200.9z" fill="#000005"></path><path class="st1" d="M247.8,196.7c0.5-0.1,0.9-0.1,1.4,0l-0.3-0.1c0.5,0.1,1,0.2,1.4,0.4l-0.4-0.2l0.3,0.2c0.2,0.1,0.7,0.4,1,0.1
		s0.2-0.7,0.1-1c-0.2-0.6-0.5-1.1-0.9-1.6c-0.4-0.5-0.8-0.9-1.3-1.2c-1.2-0.7-2.5-1-3.9-0.9c-0.4,0-0.5,0.4-0.4,0.7
		c0,0.2,0.1,0.5,0.2,0.7c0.1,0.3,0.2,0.5,0.4,0.8c0.3,0.6,0.8,1,1.3,1.4C246.9,196.5,247.3,196.6,247.8,196.7L247.8,196.7z" fill="#000005"></path><path class="st1" d="M402.7,161.9l2.5-3.1c0.1-0.1,0.2-0.2,0.1-0.4c0-0.1,0-0.2-0.2-0.3c-0.2-0.1-0.3-0.1-0.5-0.1
		c-0.2,0-0.5,0-0.7,0.1c-0.6,0.2-1.2,0.4-1.8,0.7c-0.5,0.2-0.9,0.6-1.2,0.9l-2.5,3.1c-0.1,0.1-0.2,0.2-0.1,0.4c0,0.1,0,0.2,0.2,0.3
		c0.2,0.1,0.3,0.1,0.5,0.1c0.2,0,0.5,0,0.7-0.1c0.6-0.2,1.2-0.4,1.8-0.7C401.9,162.6,402.3,162.2,402.7,161.9L402.7,161.9z" fill="#000005"></path><path class="st1" d="M408.9,165.3l10.1-6.8c0.2-0.1,0.3-0.4,0.1-0.6s-1-0.1-1.2-0.1c-1.2,0.1-2.3,0.5-3.2,1.1l-10.1,6.8
		c-0.2,0.1-0.3,0.4-0.1,0.6s1,0.1,1.2,0.1C406.8,166.3,407.9,165.9,408.9,165.3L408.9,165.3z" fill="#000005"></path></g><g id="plant"><g id="plant-2"><path class="st2" d="M43.3,411.7c0,0,15.5-69,114-101.9S314,411.7,314,411.7H43.3z"></path><path class="st2" d="M45.5,412.6c0.8-3.4,2-6.7,3.4-9.9l0.5-1.1l0.3-0.6c0.1-0.2,0.4-0.9,0.1-0.2c0.4-0.9,0.8-1.8,1.2-2.6
			c0.9-2,1.9-3.9,2.9-5.8c2.5-4.6,5.3-9.1,8.3-13.4c8.1-11.4,17.7-21.7,28.5-30.6c14.7-12,31.1-21.8,48.6-29.1
			c16.4-7,33.7-12.9,51.7-12.2c14.1,0.6,27.9,4.3,40.3,11c6.1,3.2,11.9,7,17.4,11.1c2.7,2.1,5.3,4.2,7.9,6.4
			c2.6,2.2,4.7,4.2,7.3,6.8c9.2,9.1,17.5,19.1,24.9,29.7c0.9,1.2,1.7,2.4,2.5,3.7l0.2,0.4c-0.3-0.4,0-0.1,0,0
			c0.2,0.3,0.4,0.6,0.6,0.9l1.2,1.8c1.5,2.3,3,4.6,4.4,6.9c2.4,3.9,4.8,7.9,7,12c2.5,4.6,4.9,9.3,7.1,14.1l0.3,0.6l1.5-3.3H53.7
			c-3.5,0-7-0.1-10.5,0c-0.2,0-0.3,0-0.5,0c-1.3,0-2,1.6-1.7,2.7c0.3,1.3,1.5,2.1,2.8,2.1h259.7c3.5,0,7,0.1,10.5,0h0.5
			c1.7,0,2-2.1,1.5-3.3c-1.5-3.4-3.2-6.8-4.9-10.1c-4.4-8.4-9.2-16.6-14.4-24.5c-7-10.7-14.8-20.8-23.5-30.2
			c-9.4-10.4-20.1-19.5-31.9-27.1c-12.3-7.7-25.9-13.4-40.3-15.5c-7.5-1.1-15.2-1.3-22.8-0.5c-8.6,1-17.2,2.9-25.3,5.9
			c-19.7,6.7-38.4,16.2-55.5,28.1c-12.7,9-24.1,19.7-33.9,31.8c-6.7,8.3-12.4,17.3-16.9,26.9c-2.3,4.7-4.2,9.6-5.6,14.7
			c-0.1,0.2-0.1,0.4-0.2,0.7c-0.3,1.3,0.4,2.6,1.6,3.1c1.1,0.5,2.3,0,2.8-1.1C45.5,412.8,45.5,412.7,45.5,412.6z"></path><path class="st2" d="M31.1,414.4H40l21.9-0.1l31.7-0.1l38.5-0.1l42-0.1l42.3-0.1l39.6-0.1l33.7-0.1l24.5-0.1h12.3h0.8
			c1.3,0,2.4-0.8,2.8-2c0.2-1-0.5-1.9-1.5-2c-0.1,0-0.3,0-0.5,0h-8.8l-21.9,0.1l-31.7,0.1l-38.5,0.1l-42,0.1l-42.3,0.1l-39.6,0.1
			l-33.7,0.1l-24.5,0.1H32.8H32c-1.3,0-2.4,0.8-2.8,2c-0.2,1,0.5,1.9,1.5,2C30.8,414.4,30.9,414.4,31.1,414.4L31.1,414.4z"></path></g><path class="st0" d="M73.7,319.4c0,0-8.5,23.3-17.1,22S43.2,335.4,47,328S75.5,309.4,73.7,319.4z"></path><path class="st1" d="M71.5,318.4c0,0.1-0.1,0.1-0.1,0.2c0,0.1-0.1,0.2-0.1,0.3s0.1-0.3,0,0.1c-0.3,0.8-0.7,1.6-1,2.4
		c-1,2.4-2.2,4.8-3.4,7.2c-1.4,2.6-3,5.1-4.9,7.4c-1.5,1.7-3.3,3.5-5.5,3.7c0.3,0-0.2,0-0.4,0c-0.3,0-0.6-0.1-0.9-0.1
		c-0.9-0.2-1.9-0.4-2.8-0.7c-0.8-0.2-1.5-0.6-2.2-1c-0.5-0.3-0.9-0.7-1.3-1.2c-1.7-2.2-1-5.6,0.5-7.9c1.4-1.9,3.2-3.6,5.2-4.8
		c2.5-1.7,5.2-3.2,8-4.4c1.4-0.6,2.8-1.1,4.2-1.5c0.7-0.2,1.4-0.4,2.1-0.5l1-0.1c0.2,0,0.3,0,0.5,0c0.3,0,0.6,0,0.8,0
		c0.7,0-0.1,0,0.4,0c0.1,0,0.2,0,0.3,0.1c0.3,0.1-0.5-0.2-0.1,0s-0.2-0.1-0.4-0.3c0.4,0.4-0.1-0.2-0.2-0.3c0,0.1,0.1,0.1,0.1,0.2
		c-0.1,0.1,0-0.1,0,0C71.6,317.5,71.6,317.9,71.5,318.4c-0.3,1.9,4.1,4.1,4.5,1.9c0.5-3.1-1.4-5.5-4.3-6.5c-2.5-0.8-5.4-0.2-7.9,0.5
		c-6.2,1.8-12.7,5.2-17.1,9.9c-2.4,2.4-3.5,5.8-3,9.1c0.8,4.2,4.7,7.1,8.5,8.5c3.4,1.2,7.1,2.1,10.3,0.1c2.6-1.8,4.7-4.1,6.3-6.8
		c3-4.6,5.4-9.6,7.3-14.8C76.6,318.6,72.3,316.2,71.5,318.4z"></path><path class="st0" d="M73.5,310.5c0,0-17.9-10.6-27.2-5.1s-7.6,17.9,8.2,15.7S75.1,313.8,73.5,310.5z"></path><path class="st1" d="M72.6,308.5c-3.9-2.3-8.1-4.1-12.4-5.4c-6.1-1.8-13.4-2.5-18.1,2.6c-1.8,1.8-2.8,4.2-2.8,6.7
		c0,3.1,1.9,6.1,4.2,8.2c2.4,2,5.5,3.1,8.6,3c4.6-0.1,9.1-0.9,13.5-2.3c4.2-1.3,11.8-4.2,9.3-9.9C74.3,310.3,73.6,308.9,72.6,308.5
		c-0.9-0.3-0.5,0.9-0.3,1.3c0,0.1-0.1-0.1-0.1-0.3c0,0.1,0,0.3,0.1,0.4c0,0.2,0,0.5-0.1,0.7c-0.2,0.7-0.6,1.3-1.1,1.8
		c-1.7,1.7-3.8,2.9-6.1,3.6c-3.9,1.4-7.9,2.4-12.1,2.9c-3.1,0.4-6.6,0.4-9.4-1c-0.5-0.2-0.9-0.5-1.3-0.9c0.3,0.3-0.4-0.4-0.1-0.1
		c0.1,0.1,0.4,0.5,0.2,0.2s0.2,0.4,0,0c0.2,0.3,0,0.1,0,0c0-0.1-0.1-0.3-0.1-0.4c-0.1-0.5-0.1-1-0.1-1.5c0.2-2.3,1.3-4.4,2.9-5.9
		c4.5-4.4,10.9-4,16.6-2.4c4.5,1.2,8.7,3.1,12.7,5.4c0.9,0.6,0.4-1,0.3-1.3C74.3,310.1,73.5,309.2,72.6,308.5z"></path><path class="st0" d="M78,305.9c0,0-15.4-22-22.1-21.1s-9.5,6-6.3,12.8s20.9,13.8,25.2,12S78,305.9,78,305.9z"></path><path class="st1" d="M80.3,305.8c-2.4-3.4-5-6.7-7.7-9.9c-2.1-2.5-4.4-4.9-6.8-7.1c-2-2-4.4-3.6-7.1-4.6c-3.5-1.1-7.3-0.4-10.2,1.9
		c-3,2.4-3.2,6.5-2,9.9s3.5,5.6,6.3,7.6c3.3,2.2,6.9,4.1,10.7,5.4c3.4,1.3,7.3,2.5,11,2.2c2-0.1,3.8-1,5.2-2.4
		c0.7-0.7,1-1.7,0.7-2.6c-0.7-0.9-1.7-1.4-2.8-1.4c-0.4,0-2.5,0.1-2,1c0.1,0.1,0.1,0.4,0.1,0.2c0,0.4-0.2,0.8-0.4,1.1
		c-0.6,0.6-1.3,1.1-2.1,1.4c-0.1,0-0.8,0.3-0.2,0.1l-0.3,0.1c-0.5,0.2,0.1,0-0.3,0H72c-0.3,0,0.4,0,0.1,0l-0.8-0.1
		c-0.6,0,0.2,0.1-0.4,0l-1.1-0.2c-1.3-0.3-2.6-0.7-3.9-1.1c-3-1-5.9-2.4-8.6-4.2c-2.2-1.4-4.5-3.1-5.5-5.6c-1.3-3-1.8-6.7,0.6-9.3
		c1.1-1.1,2.5-1.8,4-2.1c0.3-0.1,0.6-0.1,0.7-0.1c0,0-0.6-0.1-0.2,0c0.2,0,0.4,0.1-0.2,0c0.6,0.1-0.3,0,0.1,0c0.1,0,0.2,0.1,0.3,0.1
		c0.4,0.1-0.3-0.1,0,0c0.9,0.4,1.7,0.9,2.4,1.5c1,0.8,2,1.6,2.9,2.5c2.1,2,4,4.1,5.9,6.4c2.6,3.1,5.2,6.4,7.5,9.7
		c0.6,0.9,2.3,1.2,3.3,1.1C79.9,307.1,80.9,306.7,80.3,305.8z"></path><path class="st0" d="M82.4,303.4c0,0,3.5-30.8-5.9-32.7s-14.7,4.1-12.1,13.9s11.8,20.2,14.6,20.5S82.4,303.4,82.4,303.4z"></path><path class="st1" d="M84.3,304.6c0.4-3.8,0.6-7.5,0.7-11.3c0.1-6,0-12.8-2.5-18.4c-1.2-2.6-3-5.1-5.7-6.1c-3.5-1.3-7.5-0.9-10.7,1
		c-3,2-4.2,5.6-4.1,9.1c0.1,5,2.2,9.8,4.6,14c2.4,4.5,5.5,8.5,9.3,11.8c1.2,1,2.6,2.2,4.2,2.3s3.6-0.5,4.3-2.1s-2.8-5.1-3.6-3.3
		c-0.6,0.8-1.6,1.2-2.6,1.1c-0.1,0-0.4,0,0.1,0l-0.2-0.1c0,0-0.5-0.3,0.1,0l-0.3-0.2c-0.1-0.1-0.7-0.5-0.3-0.2
		c-0.3-0.2-0.6-0.5-0.9-0.8c-1.2-1.1-2.3-2.3-3.3-3.6c-1.2-1.6-2.4-3.3-3.4-5c-3-5.1-7.2-14.7-0.9-19.2c1.2-0.8,2.6-1.2,4.1-1.3
		c0.8-0.1,1.6-0.1,2.3,0c0.4,0,0.9,0.1,1.3,0.2c0.2,0,0.5,0.1,0.8,0.1s-0.3-0.1,0,0c0.1,0,0.7,0.3,0.4,0.2s0.6,0.4,0.1,0.1
		s0.2,0.2,0.3,0.3c-0.5-0.4-0.1-0.1,0.1,0.2c0.4,0.4-0.2-0.4,0.1,0.2l0.3,0.6c0,0.1,0.2,0.4,0-0.1c0,0.1,0.1,0.2,0.2,0.3
		c0.1,0.3,0.2,0.6,0.4,0.9s0.2,0.5,0.3,0.8l0.1,0.4c-0.1-0.3,0,0,0,0.1c0.2,0.7,0.3,1.4,0.5,2c0.3,1.3,0.4,2.7,0.6,4.1
		c0.3,2.7,0.4,5.4,0.3,8.1c0,3.7-0.2,7.5-0.6,11.2c0,1.2,0.7,2.4,1.8,3C83.1,305.5,84.2,305.7,84.3,304.6z"></path><path class="st0" d="M86.7,303.5c0,0,18.6-17.3,16.4-23.1s-10-7.7-13.9-5.1s-9.8,26.4-6.7,28S86.7,303.5,86.7,303.5z"></path><path class="st1" d="M88.2,305.4c3.4-3.1,6.5-6.5,9.5-10c2.2-2.5,4.2-5.2,5.9-8.1c1.3-2.4,2.2-5.1,1.2-7.8c-1.8-4.1-5.6-7-10-7.6
		c-3-0.5-6.6,0.1-8.4,2.7c-1.6,2.4-2.7,5.1-3.5,7.9c-1.1,3.5-2,7-2.7,10.6c-0.5,3-1.2,6.4-0.4,9.4c0.4,1.7,1.7,3.1,3.4,3.6
		C84.7,306.6,87.1,306.9,88.2,305.4c0.7-1,0.6-2.4-0.3-3.4c-0.6-0.8-2.1-1.5-2.9-0.4c-0.1,0.1-0.2,0.2,0,0c0.4-0.3-0.4,0.1-0.1,0.1
		c-0.7,0-1.3-0.2-1.9-0.5c-0.6-0.2,0.4,0.4,0.5,0.5l-0.1-0.1c0,0,0.4,0.6,0.2,0.3s0.2,0.1,0.1,0.3c0,0-0.1-0.4-0.1-0.4v-0.1l0.1,0.4
		c0-0.1,0-0.3,0-0.4c0-0.5-0.1-0.9-0.1-1.4c0-0.1,0-1,0-0.5c0-0.3,0-0.6,0.1-0.9c0.1-1.4,0.3-2.7,0.6-4.1c1-5.5,2.4-11.1,5.1-16
		c0.1-0.1,0.4-0.7,0.1-0.2c0.1-0.2,0.2-0.3,0.3-0.5s0.2-0.3,0.3-0.4s0.1-0.1,0.2-0.2s-0.4,0.2-0.1,0.1c1.2-0.7,2.6-1,4-0.9
		c1.5,0.1,2.9,0.5,4.1,1.2c0.6,0.4,1.2,0.8,1.7,1.4c0.4,0.5,0.7,1,1,1.6c0,0.1,0,0.2,0.1,0.2c0.1,0.3-0.2-0.6,0-0.2
		c0,0.2,0,0.7,0,0.1c0,0.2,0,0.4-0.1,0.6s-0.3,0.9-0.1,0.4c-0.4,1.1-0.9,2.1-1.5,3.1c-1.5,2.4-3.2,4.6-5,6.7c-3,3.5-6.1,6.8-9.4,9.9
		C83.3,303.3,86.2,307.3,88.2,305.4z"></path><path class="st0" d="M86,314.7c0,0-11.8,8.2-14,5.4s-1-13.5,8.2-17.3S89.9,307.1,86,314.7z"></path><path class="st1" d="M84.9,312.4c-2.1,1.5-4.3,2.8-6.6,4c-0.8,0.4-1.6,0.8-2.5,1.1c-0.4,0.1-0.8,0.3-1.2,0.4l-0.6,0.2
		c-0.1,0-0.3,0.1,0,0l-0.3,0.1c-0.3,0.1-0.6,0.1-0.9,0.1h-0.4c0.6,0,0.1,0-0.1-0.1c0,0,0.5,0.2,0.2,0.1s-0.1-0.1,0.1,0.1
		c0,0,0.4,0.5,0.3,0.3c-0.3-0.4,0.3,0.6,0.1,0.2l-0.1-0.2c-0.2-0.4,0.1,0.3,0.1,0.3c-0.1-0.3-0.2-0.6-0.2-0.9c0,0,0.1,0.6,0,0
		c0-0.2-0.1-0.4-0.1-0.6c0-0.2,0-0.4,0-0.6c0-0.6,0,0.2,0-0.2s0.1-0.9,0.2-1.3c0.3-1.7,0.9-3.4,1.8-4.9c1.2-1.9,2.8-3.4,4.7-4.5
		c1.1-0.7,2.4-1.2,3.6-1.5c0.5-0.1,0.9-0.2,1.4-0.2h0.6h0.3c-0.4,0,0.1,0,0.2,0s0.7,0.2,0.4,0.1s0.3,0.2,0.4,0.2s-0.4-0.3-0.1-0.1
		c0.1,0.1,0.3,0.4,0.1,0s0,0,0,0c0.2,0.5-0.1-0.2-0.1-0.2s0.1,0.3,0.1,0.3c0.2,0.4-0.1-0.5,0-0.2s0.1,0.5,0.2,0.7
		c-0.2-0.7,0,0.1,0,0.3s0,0.9,0,0.4c-0.2,2.5-0.9,5-2.2,7.2c-0.9,1.8,2.1,5.6,3.3,3.2c2.2-4.4,4.2-11.2,0.1-15.2
		c-1.9-1.9-4.6-1.8-7-1.1c-2.8,0.8-5.2,2.3-7.2,4.4c-3.2,3.5-4.7,8.1-4.2,12.8c0.3,2.1,1.1,4.5,3.1,5.5c1.7,0.8,3.6,0.1,5.2-0.5
		c3.3-1.3,6.4-3,9.3-5.1c0.8-0.8,1-2,0.4-3C87.1,313.3,85.9,311.8,84.9,312.4z"></path><path class="st1" d="M99.7,358.5c0-2-0.2-4-0.8-6c-0.7-3.3-1.4-6.6-2.3-9.8c-1.7-7.1-3.9-14.2-6.4-21.1c-0.8-2.2-1.8-4.9-3.6-6.5
		c-0.7-0.6-2.2-1.5-3.1-0.9s-0.2,1.9,0.4,2.5c0.4,0.3-0.2-0.3-0.1-0.1c0.1,0.1,0.2,0.3,0.3,0.4l0.1,0.2c0.2,0.4-0.2-0.5,0-0.1
		l0.3,0.6c0.5,1,1,2.1,1.4,3.1c1.2,2.9,2.1,5.9,3.1,8.9c2,6.7,3.9,13.4,5.3,20.3c0.3,1.4,0.6,2.8,0.8,4.2c0.1,0.5,0.1,1,0.2,1.5
		c0,0.2,0,0.4,0,0.6s0-0.3,0,0.1c0.1,1.2,0.8,2.2,1.9,2.6C97.9,359.3,99.6,359.7,99.7,358.5L99.7,358.5z"></path><path class="st1" d="M78.4,313.4c1.1,0,1.3-1,0.8-1.8c-0.8-1-2-1.5-3.2-1.5c-1.1,0-1.3,1-0.8,1.8C76,312.9,77.2,313.4,78.4,313.4
		L78.4,313.4z"></path><path class="st0" d="M81.3,307.7c0.2,0.1,0.5-0.3,0.3-0.5c-0.2,0-0.4,0.1-0.5,0.2"></path><path class="st1" d="M82.3,309.8c0.1,0,0.2,0,0.3,0h0.1l0.1-0.1c0.1-0.1,0.1-0.1,0.2-0.2v-0.1c0,0,0,0,0,0l0,0l0,0
		c0-0.1,0-0.2,0-0.3c0,0,0,0,0-0.1c0-0.1,0-0.3-0.1-0.4l0,0c0-0.2-0.1-0.3-0.2-0.5l0,0l-0.2-0.5l0,0l-0.3-0.6
		c-0.1-0.2-0.2-0.4-0.4-0.6l0,0l-0.4-0.5c-0.1-0.1-0.2-0.3-0.4-0.4c-0.2-0.2-0.4-0.3-0.6-0.4h-0.1h-0.3c-0.1,0-0.3,0.1-0.4,0.2
		c-0.1,0.1-0.2,0.2-0.2,0.3c0,0.2,0,0.4,0,0.6c0.1,0.3,0.2,0.5,0.3,0.8c0.1,0.3,0.3,0.6,0.4,0.9l0.4,0.5c0.2,0.3,0.5,0.6,0.8,0.8
		l0.3,0.2c0.1,0.1,0.3,0.1,0.5,0.1c0.1-0.1,0.3-0.1,0.4-0.2h-0.2h0.1l-1-0.7l0,0l-0.4-0.5l0,0l-0.4-0.6l0,0l-0.3-0.6l0,0l-0.2-0.5
		l0,0l-0.2-0.5l0,0l-0.1-0.4v0.1v-0.3c0,0.1,0,0.1-0.1,0.2l0.1-0.2c-0.1,0.1-0.1,0.1-0.2,0.1h0.2c0,0-0.1,0-0.1,0
		c-0.1,0-0.2,0-0.3,0.1c-0.1,0.1-0.1,0.3-0.1,0.4c0,0.2,0.1,0.5,0.1,0.7c0.1,0.3,0.2,0.5,0.3,0.8l0.3,0.6c0.2,0.4,0.5,0.7,0.8,1
		l0.4,0.4c0.2,0.2,0.4,0.3,0.6,0.4L82.3,309.8z"></path><path class="st1" d="M81.8,314.3c3,0,1.7-4.7-0.8-4.7C78,309.6,79.3,314.3,81.8,314.3z"></path><path class="st0" d="M94,332.3c-0.3-3.2,0.2-6.5,1.6-9.4c0.4-1.2,1.3-2.3,2.4-2.9c1.6-0.6,3.3,0,4.3,1.3c0.9,1.4,1.2,3,0.8,4.6
		c-0.4,1.6-1.1,3-2.1,4.3c-0.8,1.1-1.6,2.2-2.6,3.2c-0.9,1-2.2,2-3.4,1.5"></path><path class="st1" d="M96.3,332.4c-0.2-2.7,0.1-5.3,1.1-7.8c0.2-0.6,0.5-1.2,0.9-1.7c-0.2,0.3,0.3-0.3,0.4-0.4
		c0.2-0.2,0.2-0.2,0-0.1c0.1-0.1,0.2-0.2,0.4-0.2s0.3-0.1,0,0l0.4-0.1c-0.6,0.1,0.6,0.2,0,0c0.1,0,0.3,0.1,0.4,0.1
		c-0.3-0.1-0.3-0.1,0,0l0.4,0.2c-0.2-0.2-0.3-0.2,0,0s0.2,0.2,0,0c0.1,0.1,0.2,0.3,0.3,0.4v0.1c0.1,0.1,0.1,0.3,0.2,0.5
		c0.1,0.3,0.1,0.3,0,0.1c0,0.2,0,0.3,0,0.5c0,0.2,0,0.3,0,0.5c0-0.2,0-0.1,0,0.1c-0.2,1.2-0.7,2.4-1.4,3.4c-0.7,1.1-1.5,2.2-2.4,3.1
		c-0.4,0.5-0.9,1-1.4,1.5c0.2-0.2-0.4,0.2-0.5,0.3c0.1-0.1,0.2-0.1,0.3,0h-0.1c-1.1-0.4-2.3,0.2-2.7,1.3c0,0.1,0,0.1-0.1,0.2
		c-0.2,1.3,0.6,2.6,1.9,3c3.4,1,5.8-2.1,7.6-4.5s3.5-5.2,3.4-8.4c0-3.2-2.2-6-5.3-6.8c-1.5-0.4-3.1-0.1-4.3,0.8
		c-1.1,1-2,2.2-2.5,3.6c-1.4,3.2-1.9,6.7-1.6,10.2c0.1,1.3,1.2,2.4,2.5,2.5c1.1,0.1,2.1-0.8,2.2-2C96.4,332.6,96.4,332.5,96.3,332.4
		L96.3,332.4z"></path><path class="st0" d="M178.1,413.2c16.9-15.7,34.3-30.9,52.1-45.7c5.1-4.2,10.2-8.4,15.3-12.5c1.1-0.9-1.5-5-2.2-4.5
		c-18,14.5-35.6,29.4-52.9,44.8c-4.9,4.4-9.7,8.8-14.6,13.3C174.9,409.7,177.6,413.7,178.1,413.2L178.1,413.2z"></path><path class="st0" d="M173.9,307.9c-0.2,3.8-0.4,7.7-0.6,11.5c-0.4,7.8-0.8,15.6-1.3,23.3c-0.5,9.2-1,18.3-1.5,27.4l-1.3,24.2
		c-0.2,4.5-0.5,9-0.7,13.4v0.5c-0.1,1.7,4.6,3.5,4.6,1.5c0.2-3.8,0.4-7.7,0.6-11.5c0.4-7.8,0.8-15.6,1.3-23.3
		c0.5-9.2,1-18.3,1.5-27.4c0.4-8.1,0.9-16.1,1.3-24.2c0.2-4.5,0.5-9,0.7-13.4c0-0.2,0-0.4,0-0.5C178.6,307.7,174,305.9,173.9,307.9
		L173.9,307.9z"></path><path class="st0" d="M113.2,334.4l43.8,35.7l12.4,10.1c0.6,0.5,2-0.3,2.5-0.6c0.2-0.1,2.4-1.3,2-1.6l-43.7-35.7l-12.4-10.1
		c-0.6-0.5-2,0.3-2.5,0.6C115.2,333,113,334.2,113.2,334.4L113.2,334.4z"></path><path class="st0" d="M77.8,378.6c12.7,7.3,25.1,15.4,37,24c3.7,2.7,7.4,5.5,11,8.4c0.8,0.6,2.3,1.3,3.3,0.9s0.3-1.2-0.3-1.7
		c-11.8-9.3-24.2-17.9-37-25.8c-4-2.5-8-4.9-12.1-7.2c-0.7-0.4-2.4-1.1-3.1-0.5S77.3,378.3,77.8,378.6L77.8,378.6z"></path><path class="st0" d="M119.2,371.2c-2.1,11.3-3,22.8-2.6,34.4c0.1,1.8,4.6,0,4.6-1.7c-0.4-11.5,0.5-23,2.6-34.4
		c0.2-1.1-1.8-0.7-2.2-0.5C120.4,369.3,119.5,370.1,119.2,371.2z"></path><path class="st1" d="M313.5,411c0.5-2.5,1.5-4.8,2.9-6.9c1.3-2.1,3.2-3.9,5.4-5.1l0.7-0.2c-0.6-0.4-0.8-0.4-0.5-0.2l0.2,0.2
		c0.2,0.4,0.6,0.8,0.9,1.2c0.6,1,1,2.2,1.1,3.4c0.2,2.6-0.8,5.2-2.7,7l3.9,1.8c-1-1.5-0.1-3.7,0.9-4.9c1.1-1.4,2.6-2.5,4.3-3
		c2.3-0.8,6.1-1,7.8,0.9c0.8,0.9,1.8,1.6,3,1.9c0.8,0.2,1.3-0.2,0.6-1c-3.5-3.8-8.8-6.2-14-5.1c-4.5,0.9-9.4,5.7-6.2,10.3
		c0.5,0.7,3,2.7,3.9,1.8c5.4-5.4,2.2-14-4.4-16.8c-1.5-0.7-3.2-0.5-4.5,0.5c-1.3,0.9-2.4,2-3.5,3.1c-2.1,2.5-3.6,5.6-4.2,8.9
		C309,409.9,313.2,412.2,313.5,411L313.5,411z"></path><g id="plant-3"><path class="st2" d="M87.1,140.7c0,0,5.5-21.6,40.5-31.8s55.7,31.8,55.7,31.8H87.1z"></path><path class="st2" d="M89.5,141.3c0.1-0.3,0.2-0.5,0.2-0.8s0.2-0.6,0.1-0.2s0.1-0.1,0.1-0.3c0.2-0.4,0.3-0.8,0.5-1.2
			c0.5-1.1,1.1-2.2,1.7-3.2c0.4-0.6,0.8-1.3,1.2-1.9c0.2-0.4,0.5-0.7,0.7-1l0.3-0.5l0.3-0.4c-0.1,0.2,0.3-0.3,0.3-0.4l0.4-0.5
			c0.3-0.4,0.7-0.8,1-1.2c0.7-0.8,1.4-1.5,2.1-2.2c1.7-1.7,3.5-3.3,5.4-4.7c4.9-3.7,10.3-6.6,16-8.9c5.8-2.4,12-4.4,18.2-4.5
			c2.5-0.1,5,0.2,7.5,0.7c1.2,0.3,2.4,0.6,3.5,1c0.6,0.2,1.1,0.4,1.6,0.6c0.3,0.1,0.6,0.2,0.9,0.3c0.3,0.1,0.1,0,0,0l0.6,0.3
			c2.2,1,4.3,2.1,6.3,3.4c0.5,0.3,0.9,0.6,1.4,0.9c0.7,0.5,0.6,0.4,1.2,0.9c0.9,0.7,1.8,1.4,2.7,2.1c1.7,1.4,3.3,3,4.9,4.6
			c0.8,0.8,1.5,1.6,2.2,2.4s0.9,1,1.7,2c3.2,4,6.1,8.3,8.5,12.8c0.2,0.4,0,0-0.1-0.3l2.1-2.8H98.8c-3.9,0-7.8-0.1-11.7,0h-0.2
			c-3.2,0-2.6,4.6,0.3,4.6h84.3c3.9,0,7.8,0.1,11.7,0h0.2c1.3,0,2.9-1.3,2.1-2.8c-2.1-4.1-4.6-8.1-7.4-11.7
			c-5.7-7.5-12.6-14.3-21-18.7c-4.8-2.5-10-4.1-15.3-4.7c-6.3-0.6-12.4,0.6-18.3,2.5c-11.4,3.8-22.6,9.7-30.7,18.8
			c-2.3,2.6-4.3,5.5-6,8.5c-0.9,1.5-1.6,3.2-2.1,4.9c0,0.1,0,0.1,0,0.2C84,142.8,88.7,144.2,89.5,141.3z"></path><path class="st2" d="M83,143h10.9l25-0.1l29.9-0.1l26.1-0.1c4.4,0,8.7,0,13.1,0h0.3c1.1,0,2.4-0.6,2.4-1.9
			c-0.2-1.3-1.2-2.2-2.5-2.3h-10.9l-25,0.1l-29.9,0.1l-26,0.1c-4.4,0-8.7,0-13.1,0h-0.3c-1.2,0-2.4,0.6-2.4,1.9
			C80.7,142,81.7,142.9,83,143z"></path></g><path class="st0" d="M136.6,142c7.8-6.3,15.8-12.4,24-18.2c1-0.7-2.6-4-4-3.1c-8.2,5.8-16.2,11.9-24,18.2
		C131.6,139.8,135.2,143.1,136.6,142z"></path><path class="st0" d="M131.9,109c-0.4,9-1.1,18-1.7,27.1c-0.1,1.4-0.2,2.9-0.2,4.3c-0.1,1.2,1.6,1.4,2.5,1.2
		c1.2-0.2,2.1-1.2,2.3-2.4c0.4-9,1.1-18,1.7-27c0.1-1.4,0.2-2.9,0.3-4.3c0.1-1.2-1.6-1.4-2.5-1.2C133,106.9,132.1,107.8,131.9,109
		L131.9,109z"></path><path class="st0" d="M110.6,117.4l19.9,14.3c0.4,0.3,2-0.8,2.3-1c0.7-0.4,1.4-0.9,2.1-1.5L114.9,115c-0.4-0.3-2,0.8-2.3,1
		C111.9,116.4,111.2,116.9,110.6,117.4L110.6,117.4z"></path><g id="plant-4"><path class="st2" d="M367.4,321.1c0,0,5.5-21.6,40.5-31.9s55.7,31.9,55.7,31.9H367.4z"></path><path class="st2" d="M369.8,321.7c0.1-0.3,0.2-0.5,0.2-0.8s0.2-0.6,0.1-0.2l0.1-0.3c0.2-0.4,0.3-0.8,0.5-1.2
			c0.5-1.1,1.1-2.2,1.7-3.2c0.4-0.6,0.8-1.3,1.2-1.9l0.7-1c0.1-0.2,0.2-0.3,0.3-0.5s0.5-0.6,0.3-0.5l0.3-0.4l0.4-0.5
			c0.3-0.4,0.7-0.8,1-1.2c0.7-0.8,1.4-1.5,2.1-2.2c1.7-1.7,3.5-3.3,5.4-4.7c4.9-3.6,10.2-6.6,15.9-8.9c5.8-2.4,12-4.4,18.2-4.5
			c2.5-0.1,5,0.2,7.5,0.7c1.2,0.3,2.4,0.6,3.5,1c0.5,0.2,1.1,0.4,1.6,0.6l0.9,0.3c0.3,0.1,0,0,0,0l0.6,0.3c2.2,1,4.3,2.1,6.3,3.4
			c0.5,0.3,0.9,0.6,1.4,0.9c0.7,0.5,0.6,0.4,1.2,0.9c0.9,0.7,1.8,1.4,2.6,2.1c1.7,1.4,3.3,3,4.9,4.6c0.8,0.8,1.5,1.6,2.2,2.4
			c0.7,0.8,0.9,1,1.7,2c3.2,4,6.1,8.3,8.5,12.8c0.2,0.5,0,0-0.1-0.3l2.1-2.8h-84.3c-3.9,0-7.8-0.1-11.7,0h-0.2
			c-3.2,0-2.6,4.6,0.3,4.6h84.3c3.9,0,7.8,0.1,11.7,0h0.2c1.3,0,2.9-1.3,2.1-2.8c-2.1-4.1-4.6-8-7.4-11.7
			c-5.7-7.5-12.6-14.3-21-18.7c-4.8-2.5-10-4.1-15.3-4.6c-6.3-0.6-12.4,0.6-18.3,2.5c-11.4,3.8-22.6,9.7-30.7,18.8
			c-2.3,2.6-4.3,5.5-6,8.5c-0.9,1.5-1.6,3.2-2,4.9l-0.1,0.2C364.3,323.2,369,324.6,369.8,321.7z"></path><path class="st2" d="M364.1,323.3H375l25-0.1l29.9-0.1l26-0.1c4.4,0,8.7,0.1,13.1,0h0.3c0.8,0,1.4-0.5,1.5-1.3
			c0-0.2,0-0.5-0.1-0.7c-0.5-1.2-1.7-1.9-3-2h-10.9l-25,0.1l-29.9,0.1l-26,0.1c-4.4,0-8.7-0.1-13.1,0h-0.3c-0.8,0-1.4,0.5-1.5,1.3
			c0,0.2,0,0.5,0.1,0.7C361.6,322.5,362.8,323.2,364.1,323.3L364.1,323.3z"></path></g><path class="st0" d="M416.9,322.4c7.8-6.3,15.8-12.4,24-18.2c1-0.7-2.5-4-4-3.1c-8.2,5.8-16.2,11.9-24,18.2
		C411.9,320.1,415.6,323.4,416.9,322.4z"></path><path class="st0" d="M412.3,289.4c-0.4,9-1.1,18-1.7,27c-0.1,1.4-0.2,2.9-0.3,4.3c-0.1,1.2,1.6,1.4,2.5,1.2
		c1.2-0.2,2.1-1.2,2.3-2.4c0.4-9,1.1-18,1.7-27c0.1-1.4,0.2-2.9,0.3-4.3c0.1-1.2-1.6-1.4-2.5-1.2
		C413.4,287.3,412.4,288.2,412.3,289.4z"></path><path class="st0" d="M390.9,297.8l19.9,14.3c0.4,0.3,2-0.8,2.3-1c0.7-0.4,1.4-0.9,2-1.5l-19.9-14.3c-0.4-0.3-2,0.8-2.3,1
		C392.2,296.8,391.5,297.3,390.9,297.8L390.9,297.8z"></path><path class="st1" d="M156.6,99.3c-0.2,0,0,0,0,0.1c-0.1-0.1-0.1-0.2-0.2-0.4c-0.2-0.6-0.4-1.1-0.6-1.6c-0.5-1.3-0.6-2.7-0.4-4
		c0.4-1.8,2.3-4.1,4.4-3.6c1.5,0.3,1.7,3,1.9,4.3s1.2,6.9-1.4,6.6l2.3,3.9c1.9-2.4,4.3-4.5,7-6c1.3-0.8,2.7-1.4,4.1-1.9
		c0.6-0.2,1.7-0.7,2.3-0.5c-0.2-0.1,0.2,0.4,0.2,0.4c0.2,0.3,0.4,0.6,0.5,0.8c0.7,1.3,1,2.8,1,4.3c0,1.6-1.3,2-2.8,2.2
		c-1.4,0.2-2.9,0.1-4.2-0.3c-0.7-0.2-1.3-0.5-1.9-0.8c-0.3-0.2-0.5-0.3-0.8-0.5c-0.1-0.1-0.2-0.1-0.2-0.2c-0.5-0.5-0.4-0.3,0.2,0.6
		l-0.2,0.9v-0.1l-1.8-0.2c1.8,1.1,2.5,3,3,4.9c0.3,1.1,0.4,2.2,0.5,3.4c0.1,0.9,0.4,2.4-0.3,3.2c-1.5,1.6-3.1-3-3.3-3.8
		c-0.8-2.7-0.9-5.6-0.3-8.3l-3.5-1c0.6,1.9,0.3,4-0.9,5.7c-0.6,1-1.5,1.8-2.5,2.3c-0.5,0.3-1,0.5-1.6,0.6c-0.3,0.1-0.6,0-0.9-0.1
		c0.2,0.1,0.1,0,0-0.1c-1.4-1.9-1.5-4.5-0.1-6.5c1.1-1.5,3.7-2.7,5.4-1.6c0.8,0.5,2,0.6,2.3-0.5c0.1-1.2-0.5-2.4-1.5-3.1
		c-3.3-2.1-7.6-1.2-9.8,2c-2.4,3.6-1.2,8.7,1.3,11.9c1.4,1.8,3.4,3,5.8,2.4c1.8-0.5,3.4-1.5,4.5-3c2.4-3,2.9-7.1,1.3-10.6
		c-0.4-1.1-3.1-3.1-3.5-1c-0.9,4.2-0.5,8.6,1.2,12.6c0.7,1.9,1.8,3.6,3.2,5.1c1.4,1.3,3.5,2.5,5.3,1.5c3.2-1.6,1.9-7.2,1.3-10
		c-0.8-3.8-2.7-7.4-6-9.6c-0.5-0.3-1.3-0.7-1.8-0.2c-1.7,1.5-0.4,3.9,0.9,5.3c1.3,1.4,2.9,2.4,4.7,3.1c2.9,1.1,7.8,1.6,10.1-1
		c1.3-1.5,1-3.8,0.7-5.5c-0.4-2.1-1.1-4.1-2.3-5.9c-1.1-1.8-2.7-3.6-5-3.6c-1.9,0.2-3.7,0.7-5.3,1.7c-3.8,1.8-7.1,4.4-9.6,7.7
		c-1,1.3,1,3.8,2.3,3.9c5.4,0.5,4.5-6.9,4-10.2c-0.6-3.9-2.3-9-6.8-9.6c-4.2-0.6-7,3.3-7.1,7c0,2.4,0.5,4.8,1.6,7
		c0.9,2,2.4,4.1,4.8,4.3C160.4,104,158.6,99.5,156.6,99.3L156.6,99.3z"></path></g></svg>